<?xml version="1.0" encoding="utf-8"?>
<!-- Generator: Adobe Illustrator 24.1.3, SVG Export Plug-In . SVG Version: 6.00 Build 0)  -->
<svg version="1.1" id="outputsvg" xmlns="http://www.w3.org/2000/svg" xmlns:xlink="http://www.w3.org/1999/xlink" x="0px" y="0px"
	 viewBox="0 0 832 832" style="enable-background:new 0 0 832 832;" xml:space="preserve">
<style type="text/css">
	.st0{fill-rule:evenodd;clip-rule:evenodd;fill:#FFF2E2;stroke:#FFF2E2;stroke-width:0.1;stroke-miterlimit:10;}
	.st1{fill-rule:evenodd;clip-rule:evenodd;fill:#C79869;stroke:#C79869;stroke-width:0.1;stroke-miterlimit:10;}
	.st2{fill-rule:evenodd;clip-rule:evenodd;fill:#A87B4E;stroke:#A87B4E;stroke-width:0.1;stroke-miterlimit:10;}
	.st3{fill-rule:evenodd;clip-rule:evenodd;fill:#EBEAEA;stroke:#EBEAEA;stroke-width:0.1;stroke-miterlimit:10;}
	.st4{fill-rule:evenodd;clip-rule:evenodd;fill:#D0D1D3;stroke:#D0D1D3;stroke-width:0.1;stroke-miterlimit:10;}
	.st5{fill-rule:evenodd;clip-rule:evenodd;fill:#555557;stroke:#555557;stroke-width:0.1;stroke-miterlimit:10;}
	.st6{fill-rule:evenodd;clip-rule:evenodd;fill:#66504B;stroke:#66504B;stroke-width:0.1;stroke-miterlimit:10;}
	.st7{fill-rule:evenodd;clip-rule:evenodd;fill:#3C3C3D;stroke:#3C3C3D;stroke-width:0.1;stroke-miterlimit:10;}
	.st8{fill-rule:evenodd;clip-rule:evenodd;fill:#483734;stroke:#483734;stroke-width:0.1;stroke-miterlimit:10;}
	.st9{fill-rule:evenodd;clip-rule:evenodd;fill:#2F2D2E;stroke:#2F2D2E;stroke-width:0.1;stroke-miterlimit:10;}
</style>
<g>
	<g id="l5g6UPgQyFTxCa2m6T6vqsMj">
		<g>
			<path id="pHu0UzHYG" class="st0" d="M248.4,549.7h0.5c0.2,0,0.5-0.3,0.5-0.5v-0.5l0,0h1v-1l1-1.5l1-1.5l0.5-0.5l0.5-0.5v-0.5
				c0-0.3,0.1-0.5,0.3-0.5s0.9-0.7,1.5-1.5l1.2-1.5l0.5-0.5l0.5-0.5l0,0l0.5-0.5l0.5-0.5l1-1.5l1-1.5l0.5-0.5l0.5-0.5v-0.5
				c0-0.3,0.1-0.5,0.3-0.5s0.9-0.7,1.5-1.5l1.2-1.5l0.5-0.5l0.5-0.5l0,0l0.5-0.5l0.5-0.5l0.5-0.7c0.2-0.4,0.5-0.8,0.5-1v-0.3
				l0.5-0.5l0.5-0.5l1-1.5l1-1.5l0.5-0.5l0.5-0.5l0,0h0.5c0.2,0,0.5-0.3,0.5-0.5v-0.5l0,0h0.5c0.2,0,0.5-0.3,0.5-0.5v-0.5l0,0h0.5
				c0.3,0,1.2-0.7,2-1.4c0.7-0.8,1.2-1.7,0.9-2l-0.4-0.6l0,0v-0.5c0-0.3,0.2-0.5,0.5-0.5h0.5l0.5-0.5l0.2-0.8l0.5-0.5l0.3-0.7
				l0.5-0.5l0,0h0.5c0.2,0,0.5-0.3,0.5-0.5v-0.5l0,0l0.5-0.5l0.5-0.5v-0.5c0-0.3,0.2-0.5,0.5-0.5h0.5v1l0.5-0.8
				c0.2-0.4,0.5-1.1,0.5-1.5v-0.7l0,0l0.5-0.5l0.5-0.5v-0.5c0-0.3,0.2-0.5,0.5-0.5h0.5l0.5-0.5l0.2-0.8l0.5-0.5l0.8-0.2l0.5-0.5
				l0.2-0.8l0.5-0.5l0.8-0.2l0.5-0.4c0.2-0.2,0.5-0.6,0.5-1v-0.6l0,0h0.5c0.2,0,0.5-0.3,0.5-0.5v-0.5l0,0h0.5c0.2,0,0.5-0.3,0.5-0.5
				v-0.5l0,0h0.5c0.2,0,0.5-0.3,0.5-0.5v-0.5l0,0h0.5c0.2,0,0.5-0.3,0.5-0.5v-0.5l0,0h0.5c0.2,0,0.5-0.3,0.5-0.5v-0.5l0,0h0.5
				c0.2,0,0.5-0.3,0.5-0.5v-0.5l0,0l0.5-0.4c0.2-0.2,0.5-0.6,0.5-1v-0.6l0,0h0.5c0.2,0,0.5-0.3,0.5-0.5v-0.5l0,0h0.5
				c0.2,0,0.5-0.3,0.5-0.5v-0.5l0,0l1-1l1-1l0,0h0.5c0.2,0,0.5-0.3,0.5-0.5v-0.5l0,0h0.5c0.2,0,0.5-0.3,0.5-0.5v-0.5l0,0l0.5-0.5
				l0.5-0.5v-0.5c0-0.3,0.2-0.5,0.5-0.5h0.5l0,0h0.5c0.2,0,0.5-0.3,0.5-0.5v-0.5l0,0h0.5c0.2,0,0.5-0.3,0.5-0.5v-0.5l0,0h0.5
				c0.2,0,0.5-0.3,0.5-0.5v-0.5l0,0h0.5c0.2,0,0.5-0.3,0.5-0.5v-0.5l0,0h0.5c0.2,0,0.5-0.3,0.5-0.5v-0.5l0,0h0.5
				c0.2,0,0.5-0.3,0.5-0.5v-0.5l0,0h0.5c0.2,0,0.5-0.3,0.5-0.5v-0.5l0,0h0.5c0.2,0,0.5-0.3,0.5-0.5v-0.5l0,0h0.5
				c0.2,0,0.5-0.3,0.5-0.5v-0.5l0,0h0.5c0.2,0,0.5-0.3,0.5-0.5v-0.5l0,0h0.5c0.2,0,0.5-0.3,0.5-0.5v-0.5l0,0h0.5
				c0.2,0,0.5-0.3,0.5-0.5v-0.5l0,0h0.5c0.2,0,0.5-0.3,0.5-0.5v-0.5l0,0h0.5c0.2,0,0.5-0.2,0.5-0.4c0-0.2,0.2-0.6,0.5-1l0.5-0.6l0,0
				h0.5c0.2,0,0.5-0.2,0.5-0.4c0-0.2,0.2-0.6,0.5-1l0.5-0.6H322l0.6-0.8l0.8-0.2h0.5c0.2,0,0.5-0.3,0.5-0.5v-0.5l0,0h0.5
				c0.2,0,0.5-0.2,0.5-0.4c0-0.2,0.2-0.6,0.5-1l0.5-0.6l0,0l1-1.5l1-1.5l0,0l1-0.5l1-0.5l0,0v-0.5c0-0.3,0.2-0.5,0.5-0.5h0.5l0,0
				h0.5c0.2,0,0.5-0.3,0.5-0.5v-0.5l0,0h0.5c0.2,0,0.5-0.3,0.5-0.5v-0.5l0,0h0.5c0.2,0,0.5-0.3,0.5-0.5v-0.5l0,0h0.5
				c0.2,0,0.5-0.3,0.5-0.5v-0.5l0,0h0.5c0.2,0,0.5-0.3,0.5-0.5v-0.5l0,0v-0.5c0-0.3,0.2-0.5,0.5-0.5h0.5l0,0v-0.5
				c0-0.3,0.2-0.5,0.5-0.5h0.5l0,0h0.5c0.2,0,0.5-1.1,0.5-2.5c0-1.3,0.6-2.5,1.4-2.7c0.8-0.2,9.1-7.8,18.3-16.8
				c9.3-9.1,32.6-31.8,51.8-50.5c19.2-18.7,41.2-40.1,48.9-47.6c7.7-7.4,26-25,40.6-39c14.5-14.1,30.3-29.1,35-33.4
				c4.6-4.3,8.8-8.5,9.2-9.2l0.8-1.3l0,0h0.5c0.2,0,0.5-0.3,0.5-0.5v-0.5l0,0h0.5c0.2,0,0.5-0.3,0.5-0.5v-0.5l0,0h0.5
				c0.2,0,0.5-0.3,0.5-0.5v-0.5l0,0h0.5c0.2,0,0.5-0.3,0.5-0.5v-0.5l0,0h0.5c0.2,0,0.5-0.3,0.5-0.5v-0.5l0,0l0.5-0.5l0.5-0.5h0.5
				c0.2,0,0.7,0,1,0h0.5l0,0l0.5,0.6c0.2,0.4,0.5,0.4,0.5,0c0-0.3-0.3-0.6-0.5-0.6h-0.5l0,0v-0.5c0-0.3,0.2-0.5,0.5-0.5h0.5l0,0
				v-0.5c0-0.3,0.2-0.5,0.5-0.5h0.5l0,0v-0.5c0-0.3,0.2-0.5,0.5-0.5h0.5l0,0v-0.5c0-0.3,0.2-0.5,0.5-0.5h0.5l0,0v-0.5
				c0-0.3,0.2-0.5,0.5-0.5h0.5l0,0v-0.5c0-0.3,0.2-0.5,0.5-0.5h0.5l0,0v-0.5c0-0.3,0.2-0.5,0.5-0.5h0.5l-0.5-0.5l0.5-0.5h1l1-1.2
				c0.5-0.7,1-1.4,1-1.5c0-0.1,3.8-3.6,8.5-7.8l8.5-7.5l0,0v-0.5c0-0.3,0.2-0.5,0.5-0.5h0.5l0,0v-0.5c0-0.3,0.2-0.5,0.5-0.5h0.5l0,0
				v-0.5c0-0.3,0.2-0.5,0.5-0.5h0.5l0,0v-0.5c0-0.3,0.2-0.5,0.5-0.5h0.5l0,0v-0.5c0-0.3,0.2-0.5,0.5-0.5h0.5l0,0v-0.5
				c0-0.3,0.2-0.5,0.5-0.5h0.5l0,0v-0.5c0-0.3,0.2-0.5,0.5-0.5h0.5l0,0l0.5-0.7c0.2-0.4,0.5-0.7,0.5-0.8s0.6-0.9,1.5-1.8l1.5-1.7
				l0,0h0.5c0.2,0,0.5-0.3,0.5-0.5v-0.5l0,0h0.5c0.2,0,0.5-0.3,0.5-0.5v-0.5l0,0h0.5c0.2,0,0.5-0.3,0.5-0.5v-0.5l0,0l0.5-0.5
				l0.5-0.5h0.5c0.2,0,0.7,0,1,0h0.5l0,0v-0.5c0-0.3,0.2-0.5,0.5-0.5h0.5l0,0v-0.5c0-0.3,0.2-0.5,0.5-0.5h0.5l0,0v-0.5
				c0-0.3,0.2-0.5,0.5-0.5h0.5l-0.5-0.5l0.6-0.4l0.9-0.1l0.5-0.7c0.2-0.4,0.5-0.8,0.5-1v-0.3l0,0h0.5c0.2,0,0.5-0.3,0.5-0.5v-0.5
				l0,0h0.5c0.2,0,0.5-0.3,0.5-0.5v-0.5l0,0h0.5c0.2,0,0.5-0.3,0.5-0.5v-0.5l0,0h0.5c0.2,0,0.5-0.3,0.5-0.5v-0.5l0,0h0.5
				c0.2,0,0.5-0.3,0.5-0.5v-0.5l0,0h0.5c0.2,0,0.5-0.3,0.5-0.5v-0.5l0,0h0.5c0.2,0,0.5-0.3,0.5-0.5v-0.5l0,0h0.5
				c0.2,0,0.5-0.3,0.5-0.5v-0.5l0,0l1.6-1.3c0.9-0.7,4.9-4.3,8.9-8s7.5-6.7,7.8-6.7c0.4,0,0.7,0.2,0.7,0.5v0.5l0,0h-0.5
				c-0.3,0-0.5,0.2-0.5,0.5v0.5l0,0h-0.5c-0.3,0-0.5,0.2-0.5,0.5v0.5l0,0h-0.5c-0.3,0-0.5,0.2-0.5,0.5v0.5l0,0h-0.5
				c-0.3,0-0.5,0.2-0.5,0.5v0.5l0,0h-0.5c-0.3,0-0.5,0.2-0.5,0.5v0.5l0,0h-0.5c-0.3,0-0.5,0.2-0.5,0.5v0.5l0,0h-0.5
				c-0.3,0-0.5,0.2-0.5,0.5v0.5l0,0h-0.5c-0.3,0-0.5,0.2-0.5,0.5v0.5l0,0h-0.5c-0.3,0-0.5,0.2-0.5,0.5v0.5l0,0h-0.5
				c-0.3,0-0.5,0.2-0.5,0.5v0.5l0,0h-0.5c-0.3,0-0.5,0.2-0.5,0.5v0.5l0,0h-0.5c-0.3,0-0.5,0.2-0.5,0.5v0.5l0,0h-0.5
				c-0.3,0-0.5,0.2-0.5,0.5v0.5l0,0h-0.5c-0.3,0-0.5,0.2-0.5,0.5v0.5l0,0h-0.5c-0.3,0-0.5,0.2-0.5,0.5v0.5l0,0h-0.5
				c-0.3,0-0.5,0.2-0.5,0.5v0.5l0,0h-0.5c-0.3,0-0.5,0.2-0.5,0.5v0.5l0,0h-0.5c-0.3,0-0.5,0.2-0.5,0.5v0.5l0,0h-0.5
				c-0.3,0-0.5,0.2-0.5,0.5v0.5l0,0h-0.5c-0.3,0-0.5,0.2-0.5,0.5v0.5l0,0h-0.5c-0.3,0-0.5,0.2-0.5,0.5v0.5l0,0h-0.5
				c-0.3,0-0.5,0.2-0.5,0.5v0.5l0,0h-0.5c-0.3,0-0.5,0.2-0.5,0.5v0.5l0,0l-3.5,3.7c-2,2-3.5,3.8-3.5,3.8c0,0.1-0.3,0.4-0.7,0.8
				c-0.4,0.4-0.8,0.7-1,0.7c-0.1,0-0.5,0.4-0.8,1l-0.5,1l0,0h-0.5c-0.3,0-0.5,0.2-0.5,0.5v0.5l0,0h-0.5c-0.3,0-0.5,0.2-0.5,0.5v0.5
				l0,0h-0.5c-0.3,0-0.5,0.2-0.5,0.5v0.5l0,0h-0.5c-0.3,0-0.5,0.2-0.5,0.5v0.5l0,0h-0.5c-0.3,0-0.5,0.2-0.5,0.5v0.5l0,0h-0.5
				c-0.3,0-0.5,0.2-0.5,0.5v0.5l0,0h-0.5c-0.3,0-0.5,0.2-0.5,0.5v0.5l0,0h-0.5c-0.3,0-0.5,0.2-0.5,0.5v0.5l0,0h-0.5
				c-0.3,0-0.5,0.2-0.5,0.5v0.5l0,0h-0.5c-0.3,0-0.5,0.2-0.5,0.5v0.5l0,0h-0.5c-0.3,0-0.5,0.2-0.5,0.5v0.5l0,0h-0.5
				c-0.3,0-0.5,0.2-0.5,0.5v0.5l0,0h-0.5c-0.3,0-0.5,0.2-0.5,0.5v0.5l0,0h-0.5c-0.3,0-0.5,0.2-0.5,0.5v0.5l0,0h-0.5
				c-0.3,0-0.5,0.2-0.5,0.5v0.5l0,0h-0.5c-0.3,0-0.5,0.2-0.5,0.5v0.5l0,0h-0.5c-0.3,0-0.5,0.2-0.5,0.5v0.5l0,0h-0.5
				c-0.3,0-0.5,0.2-0.5,0.5v0.5l0,0h-0.5c-0.3,0-0.5,0.2-0.5,0.5v0.5l0,0l-1,1.5l-1,1.5l0,0h-0.5c-0.3,0-0.5,0.2-0.5,0.5v0.5l0,0
				h-0.5c-0.3,0-0.5,0.2-0.5,0.5v0.5l0,0h-0.5c-0.3,0-0.5,0.2-0.5,0.5v0.5l0,0h-0.5c-0.3,0-0.5,0.2-0.5,0.5v0.5l0,0h-0.5
				c-0.3,0-0.5,0.2-0.5,0.5v0.5l0,0h-0.5c-0.3,0-0.5,0.2-0.5,0.5v0.5l0,0h-0.5c-0.3,0-0.5,0.2-0.5,0.5v0.5l0,0h-0.5
				c-0.3,0-0.5,0.2-0.5,0.5v0.5l0,0h-0.5c-0.3,0-0.5,0.2-0.5,0.5v0.5l0,0h-0.5c-0.3,0-0.5,0.2-0.5,0.5v0.5l0,0h-0.5
				c-0.3,0-0.5,0.2-0.5,0.5v0.5l0,0h-0.5c-0.3,0-0.5,0.2-0.5,0.5v0.5l0,0h-0.5c-0.3,0-0.5,0.2-0.5,0.5v0.5l0,0h-0.5
				c-0.3,0-0.5,0.2-0.5,0.5v0.5l0,0h-0.5c-0.3,0-0.5,0.2-0.5,0.5v0.5l0,0h-0.5c-0.3,0-0.5,0.2-0.5,0.5v0.5l0,0h-0.5
				c-0.3,0-0.5,0.2-0.5,0.5v0.5l0,0h-0.5c-0.3,0-0.5,0.2-0.5,0.5v0.5l0,0h-0.5c-0.3,0-0.5,0.2-0.5,0.5v0.5l0,0h-0.5
				c-0.3,0-0.5,0.2-0.5,0.5v0.5l0,0h-0.5c-0.3,0-0.5,0.2-0.5,0.5v0.5l0,0l-1.5,1.5l-1.5,1.5l-0.5,0.5l-0.3,0.7l0,0l-0.2,0.4l-1,0.4
				l-17,17.7c-9.3,9.8-17,17.8-17,17.8s-1.2,1.2-2.5,2.7l-2.5,2.8l-0.5,0.5l-0.5,0.5l-26.2,27c-14.4,14.8-26.2,27-26.2,27
				c-0.1,0-3,2.8-6.4,6.2s-6.2,6.3-6.2,6.5v0.3l-0.5,0.5l-0.5,0.5l-37.5,37.7c-20.6,20.8-37.5,37.8-37.5,37.8s-4.3,4.3-9.5,9.7
				l-9.5,9.8l0.5,0.5v1l0.5,0.5h-0.8c-0.4,0-1.1,0.2-1.5,0.5l-0.7,0.5v-0.4l-0.8,0.6l-0.7,0.3l-0.8,0.2l-0.5,0.5l-0.7,0.3l-0.5,0.5
				l-7,7.2c-3.9,4-7,7.3-7,7.4c0,0-0.7,0.6-1.5,1.2l-1.5,1.2l0,0h-0.5c-0.3,0-0.5,0.2-0.5,0.5v0.5l0,0h-0.5c-0.3,0-0.5,0.2-0.5,0.5
				v0.5l0,0h-0.5c-0.3,0-0.5,0.2-0.5,0.5v0.5l0,0h-0.5c-0.3,0-0.5,0.2-0.5,0.5v0.5l0,0h-0.5c-0.3,0-0.5,0.2-0.5,0.5v0.5l0,0h-0.5
				c-0.3,0-0.5,0.2-0.5,0.5v0.5l0,0h-0.5c-0.3,0-0.5,0.2-0.5,0.5v0.5l0,0h-0.5c-0.3,0-0.5,0.2-0.5,0.5v0.5l0,0h-0.5
				c-0.3,0-0.5,0.2-0.5,0.5v0.5l0,0h-0.5c-0.3,0-0.5,0.2-0.5,0.5v0.5l0,0h-0.5c-0.3,0-0.5,0.2-0.5,0.5v0.5l0,0h-0.5
				c-0.3,0-0.5,0.2-0.5,0.5v0.5l0,0h-0.5c-0.3,0-0.5,0.2-0.5,0.5v0.5l0,0h-0.5c-0.3,0-0.5,0.2-0.5,0.5v0.5l0,0h-0.5
				c-0.3,0-0.5,0.2-0.5,0.5v0.5l0,0h-0.5c-0.3,0-0.5,0.2-0.5,0.5v0.5l0,0h-0.5c-0.3,0-0.5,0.2-0.5,0.5v0.5l0,0h-0.5
				c-0.3,0-0.5,0.2-0.5,0.5v0.5l0,0h-0.5c-0.3,0-0.5,0.2-0.5,0.5v0.5l0,0h-0.5c-0.3,0-0.5,0.2-0.5,0.5v0.5l0,0h-0.5
				c-0.3,0-0.5,0.2-0.5,0.5v0.5l0,0h-0.5c-0.3,0-0.5,0.2-0.5,0.5v0.5l0,0h-0.5c-0.3,0-0.5,0.2-0.5,0.5v0.5l0,0h-0.5
				c-0.3,0-0.5,0.2-0.5,0.5v0.5l0,0h-0.5c-0.3,0-0.5,0.2-0.5,0.5v0.5l0,0h-0.5c-0.3,0-0.5,0.2-0.5,0.5v0.5l0,0h-0.5
				c-0.3,0-0.5,0.2-0.5,0.5v0.5l0,0h-0.5c-0.3,0-0.5,0.2-0.5,0.5v0.5l0,0h-0.5c-0.3,0-0.5,0.2-0.5,0.5v0.5l0,0h-0.5
				c-0.3,0-0.5,0.2-0.5,0.5v0.5l0,0h-0.5c-0.3,0-0.5,0.2-0.5,0.5v0.5l0,0l-2.8,2.5c-1.5,1.3-2.7,2.5-2.8,2.5c0,0-0.6,0.4-1.2,1
				l-1.2,1l-0.5,0.5l-0.5,0.5l0,0h-0.5c-0.3,0-0.5,0.2-0.5,0.5v0.5l0,0h-0.5c-0.3,0-0.5,0.2-0.5,0.5v0.5l0,0h-0.5
				c-0.3,0-0.5,0.2-0.5,0.5v0.5l0,0h-0.5c-0.3,0-0.5,0.2-0.5,0.5v0.5l0,0h-0.5c-0.3,0-0.5,0.2-0.5,0.5v0.5l0,0h-0.5
				c-0.3,0-0.5,0.2-0.5,0.5v0.5l0,0h-0.5c-0.3,0-0.5,0.2-0.5,0.5v0.5l0,0l-0.5,0.5l-0.5,0.5l-1.8,1.5c-0.9,0.8-1.7,1.5-1.8,1.5
				s-0.4,0.2-0.8,0.5l-0.6,0.5l-0.5,0.5l-0.5,0.5l0,0h-0.5c-0.3,0-0.5,0.2-0.5,0.5v0.5l0,0h-0.5c-0.3,0-0.5,0.2-0.5,0.5v0.5l0,0
				h-0.5c-0.3,0-0.5,0.2-0.5,0.5v0.5l0,0h-0.5c-0.3,0-0.5,0.2-0.5,0.5v0.5l0,0h-0.5c-0.3,0-0.5,0.2-0.5,0.5v0.5l0,0h-0.5
				c-0.3,0-0.5,0.2-0.5,0.5v0.5l0,0l-0.5,0.5l-0.5,0.5l-1.5,1l-1.5,1l-0.5,0.5l-0.5,0.5l0,0h-0.5c-0.3,0-0.5,0.2-0.5,0.5v0.5l0,0
				h-0.5c-0.3,0-0.5,0.2-0.5,0.5v0.5l0,0h-0.5c-0.3,0-0.5,0.2-0.5,0.5v0.5l0,0l-0.5,0.5l-0.8,0.2l-0.5,0.5l-0.7,0.3l-0.5,0.5l0,0
				h-0.5c-0.3,0-0.5,0.2-0.5,0.5v0.5l0,0h-0.5c-0.3,0-0.5,0.2-0.5,0.5v0.5l0,0h-0.5c-0.3,0-0.5,0.2-0.5,0.5v0.5l0,0h-0.5
				c-0.3,0-0.5,0.2-0.5,0.5v0.5l0,0h-1v1h-0.5c-0.3,0-0.5,0.2-0.5,0.5v0.5h-0.7l0.2-0.8 M580.4,213.7h0.5c0.2,0,0.5-0.3,0.5-0.5
				v-0.5l0,0h0.5c0.2,0,0.5-0.3,0.5-0.5v-0.5l0,0h0.5c0.2,0,0.5-0.3,0.5-0.5v-0.5l0,0h0.5c0.2,0,0.5-0.3,0.5-0.5v-0.5l0,0h0.5
				c0.2,0,0.5-0.3,0.5-0.5v-0.5l0,0h0.5c0.2,0,0.5-0.3,0.5-0.5v-0.5l0,0h0.5c0.2,0,0.5-0.3,0.5-0.5v-0.5l0,0h0.7
				c0.3,0-1.1,1.7-3.2,3.9c-2.2,2.2-4.1,3.8-4.2,3.5L580.4,213.7"/>
			<path id="p7CMCfLaW" class="st0" d="M567.4,350.7l1-0.6c0.5-0.3,1-0.7,1-0.8c0-0.2,1.1-1.3,2.5-2.5l2.5-2.1l0,0v-0.5
				c0-0.3,0.2-0.5,0.5-0.5h0.5H575l0.2,0.8l-0.8,0.2v0.5c0,0.2-0.3,0.5-0.5,0.5h-0.5l0,0v0.5c0,0.2-0.3,0.5-0.5,0.5h-0.5l0,0v0.5
				c0,0.2-0.3,0.5-0.5,0.5h-0.5l0,0v0.5c0,0.2-0.3,0.5-0.5,0.5h-0.5l0,0v0.5c0,0.2-0.3,0.5-0.5,0.5h-0.5l0,0v0.5
				c0,0.2-0.3,0.5-0.5,0.5h-0.5l-0.2-0.2l0.2,1.2l-0.5-0.5"/>
			<path id="pGkzlkbCa" class="st0" d="M607.4,315.7v-0.5c0-0.3,0.2-0.5,0.5-0.5h0.5v-1h0.5c0.2,0,0.5-0.3,0.5-0.5v-0.5h1l1.5-1.5
				l1.5-1.5l0,0v0.5c0,0.2-0.3,0.5-0.5,0.5h-0.5l0,0v0.5c0,0.2-0.3,0.5-0.5,0.5h-0.5l0,0v0.5c0,0.2-0.3,0.5-0.5,0.5h-0.5l0.1-0.2
				v1.3l-1.1-0.1l0.1,1.1l0,0h-1.3l0.2,0.9l-0.9-0.2"/>
			<path id="ppZu45JMw" class="st0" d="M488.4,194.7v1.5v1.5v1H488c-0.2,0-0.7-1-1-2.3c-0.3-1.2-0.4-2.3-0.3-2.5
				c0.2-0.1,0.6,0,1,0.3L488.4,194.7"/>
		</g>
	</g>
	<g id="l38lz1EUyTgxQ4FmTOFhQDOj">
		<g>
			<path id="pAf3dcvFQ" class="st1" d="M545.4,245.7v-1.5c0-0.9,0-1.8,0-2c0-0.3-0.3-0.5-0.5-0.5h-0.5l0,0v-1.5c0-0.9,0-1.8,0-2
				c0-0.3,0-0.8,0-1v-0.5l0,0h0.5c0.2,0,0.5-0.8,0.5-1.6c0-0.9-0.5-1.3-1-1l-1,0.6l0,0v-1.5c0-0.9,0-1.8,0-2c0-0.3,0-0.8,0-1v-0.5
				l-0.5-0.5l-0.5-0.5v-1.5c0-0.9,0-1.8,0-2c0-0.3,0-0.8,0-1v-0.5l0,0h0.5c0.2,0,0.5-0.8,0.5-1.6c0-0.9-0.5-1.3-1-1l-1,0.6l0,0v-2
				v-2l-0.5-0.5l-0.5-0.5v-1.5c0-0.9,0-1.8,0-2c0-0.3,0-0.8,0-1v-0.5v-1l-0.5-0.5l-0.5-0.5v-2v-2l0,0l0.6-0.5
				c0.4-0.3,0.5-0.5,0.2-0.5s-0.8-0.3-1.2-0.5l-0.6-0.5l0,0v-2v-2l0,0h0.5c0.2,0,0.5-0.7,0.5-1.5c0-0.9-0.5-1.5-1-1.5h-1l0,0v-2v-2
				l-0.5-0.5l-0.5-0.5v-1.5c0-0.9,0-1.8,0-2c0-0.3,0-0.8,0-1v-0.5l-0.5-0.5l-0.5-0.5v-1.5c0-0.9,0-1.8,0-2c0-0.3,0-0.8,0-1v-0.5
				l-0.5-0.5l-0.5-0.5v-1.5c0-0.9,0-1.8,0-2c0-0.3,0-0.8,0-1v-0.5l0,0v-0.3c0.1-0.1,0.4-0.9,0.7-1.6c0.3-0.9,0.1-1.2-0.6-0.8
				l-1.1,0.7l0,0v-1.5v-1.5v-1l-0.5-0.5l-0.5-0.5v-1c0-0.6,0-1.3,0-1.5c0-0.3,0-1.2,0-2v-1.5l-0.5-0.5l-0.5-0.5v-2v-2v-1l-0.5-0.5
				l-0.5-0.5v-1.5c0-0.9,0-1.8,0-2c0-0.3,0-0.8,0-1v-0.5l0,0h0.5c0.2,0,0.5-0.5,0.5-1.1c0-0.6-0.5-0.8-1-0.5l-1,0.6l0,0v-1.5v-1.5
				v-1v-0.5c0-0.3-0.3-0.5-0.5-0.5h-0.5l0,0v-1.5v-1.5v-1v-0.5c0-0.3,0.2-0.5,0.5-0.5h0.5l0.5-0.5l0.5-0.5v-0.5
				c0-0.3,0.2-0.5,0.5-0.5h0.5l0.5-0.5l0.5-0.5l0,0l0.5-0.5l0.5-0.5l1-0.6c0.5-0.3,1-0.7,1-0.8c0-0.2,0.3-0.6,0.6-1
				c0.4-0.3,0.7-0.6,0.8-0.6c0,0,1.8-1.6,3.8-3.5l3.8-3.5l0.5-0.5l0.5-0.5l0.6-0.5c0.4-0.3,0.7-0.5,0.8-0.5c0.1,0,0.9-0.7,1.8-1.5
				l1.8-1.5l0.5-0.5l0.5-0.5l1-0.6c0.5-0.3,1-0.7,1-0.8c0-0.2,1.1-1.3,2.5-2.5l2.5-2.1l0.5-0.5l0.5-0.5l1.5-1l1.5-1l0.5-0.5l0.5-0.5
				l1.5-1l1.5-1l0.5-0.5l0.5-0.5l0,0l0.5-0.5l0.7-0.3l0.5-0.5l0.8-0.2l0.5-0.5l0,0l0.5-0.5l0.5-0.5l0.6-0.5c0.4-0.3,0.8-0.5,1-0.5
				h0.4l0.5-0.5l0.7-0.3l0.5-0.5l0.8-0.2l0.5-0.5l0,0l0.5-0.5l0.5-0.5l4-2l4-2l0.5-0.5l0.5-0.5l0.9-0.5c0.5-0.3,1.1-0.5,1.5-0.5h0.6
				l0.5-0.5l0.5-0.5l2.5-1l2.5-1l0.5-0.5l0.5-0.5l1.7-0.6c1-0.4,4.1-1.5,7-2.5l5.3-1.9l0.5-0.5l0.5-0.5h0.8c0.4,0,1-0.3,1.3-0.5
				c0.3-0.3,0.8-0.5,1.2-0.5h0.7l0.5-0.5l0.5-0.5h1c0.6,0,1.5-0.3,2-0.5c0.4-0.3,1-0.5,1.4-0.5h0.6l0.5-0.5l0.5-0.5h1
				c0.6,0,1.5-0.3,2-0.5c0.4-0.3,1-0.5,1.4-0.5h0.6l0.5-0.5l0.5-0.5l3-0.5l3-0.5l0.5-0.5l0.5-0.5h2h2l0.5-0.5l0.5-0.5h0.5
				c0.2,0,0.7,0,1,0h0.5l0.5-0.5l0.5-0.5l4-0.5l4-0.5l0.5-0.5l0.5-0.5h0.5c0.2,0,0.7,0,1,0c0.2,0,1.1,0,2,0h1.5l0.5-0.5l0.5-0.5h1.5
				h1.5l0.5-0.5l0.5-0.5h3.5c1.9,0,3.7,0,4,0h0.5l0.5-0.5l0.5-0.5h2h2l0.5-0.5l0.5-0.5h3.5c1.9,0,3.7,0,4,0c0.2,0,1.1,0,2,0h1.5h1
				l0.5-0.5l0.5-0.5h4.5h4.5h1h0.5c0.2,0,0.7,0,1,0h0.5v-1h5c2.7,0,5.2,0,5.5,0c0.2,0,2.5,0,5,0h4.5l0.5,0.5l0.5,0.5h1h3.5h3.5l0,0
				v0.5c0,0.2,0,0.7,0,1v0.5l0,0l-1.4,0.5c-0.7,0.3-20.7,20-44.4,43.7c-23.7,23.8-45.3,46-48.1,49.4c-2.8,3.4-5.6,6.5-6.1,6.8
				l-1,0.6l0,0v0.5c0,0.2-0.3,0.5-0.5,0.5h-0.5l0,0v0.5c0,0.2-0.3,0.5-0.5,0.5h-0.5l0,0v0.5c0,0.2-0.3,0.5-0.5,0.5h-0.5l0,0v0.5
				c0,0.2-0.3,0.5-0.5,0.5h-0.5l0,0v0.5c0,0.2-0.3,0.5-0.5,0.5h-0.5l0,0v0.5c0,0.2-0.3,0.5-0.5,0.5h-0.5l0,0v0.5
				c0,0.2-0.3,0.5-0.5,0.5h-0.5l0,0v0.5c0,0.2-0.3,0.5-0.5,0.5h-0.5l0,0v0.5c0,0.2-0.3,0.5-0.5,0.5h-0.5l0,0v0.5
				c0,0.2-0.3,0.5-0.5,0.5h-0.5l0,0v0.5c0,0.2-0.3,0.5-0.5,0.5h-0.5l0,0v0.5c0,0.2-0.3,0.5-0.5,0.5h-0.5l0,0v0.5
				c0,0.2-0.3,0.5-0.5,0.5h-0.5l0,0v0.5c0,0.2-0.3,0.5-0.5,0.5h-0.5l0,0v0.5c0,0.2-0.3,0.5-0.5,0.5h-0.5l0,0v0.5
				c0,0.2-0.3,0.5-0.5,0.5h-0.5l0,0v0.5c0,0.2-0.3,0.5-0.5,0.5h-0.5l0,0v0.5c0,0.2-0.3,0.5-0.5,0.5h-0.5l0,0v0.5
				c0,0.2-0.3,0.5-0.5,0.5h-0.5l0,0v0.5c0,0.2-0.3,0.5-0.5,0.5h-0.5l0,0v0.5c0,0.2-0.3,0.5-0.5,0.5h-0.5l0,0v0.5
				c0,0.2-0.3,0.5-0.5,0.5h-0.5l0,0v0.5c0,0.2-0.3,0.5-0.5,0.5h-0.5l0,0v-0.5c0-0.3,0.2-0.5,0.5-0.5h0.5l0,0v-0.5
				c0-0.3,0.2-0.5,0.5-0.5h0.5l0,0v-0.5c0-0.3,0.2-0.5,0.5-0.5h0.5l0,0v-0.5c0-0.3,0.2-0.5,0.5-0.5h0.5l0,0v-0.5
				c0-0.3,0.2-0.5,0.5-0.5h0.5l0,0v-0.5c0-0.3,0.2-0.5,0.5-0.5h0.5l0,0v-0.5c0-0.3,0.2-0.5,0.5-0.5h0.5l0,0v-0.5
				c0-0.3,0.2-0.5,0.5-0.5h0.5l0,0v-0.5c0-0.3,0.2-0.5,0.5-0.5h0.5l0,0v-0.5c0-0.3,0.2-0.5,0.5-0.5h0.5l0,0v-0.5
				c0-0.3,0.2-0.5,0.5-0.5h0.5l0,0v-0.5c0-0.3,0.2-0.5,0.5-0.5h0.5l0,0v-0.5c0-0.3,0.2-0.5,0.5-0.5h0.5l0,0v-0.5
				c0-0.3,0.2-0.5,0.5-0.5h0.5l0,0v-0.5c0-0.3,0.2-0.5,0.5-0.5h0.5l0,0v-0.5c0-0.3,0.2-0.5,0.5-0.5h0.5l0,0v-0.5
				c0-0.3,0.2-0.5,0.5-0.5h0.5l0,0v-0.5c0-0.3,0.2-0.5,0.5-0.5h0.5l0,0v-0.5c0-0.3,0.2-0.5,0.5-0.5h0.5l0,0v-0.5
				c0-0.3,0.2-0.5,0.5-0.5h0.5l0,0v-0.5c0-0.3,0.2-0.5,0.5-0.5h0.5l0,0v-0.5c0-0.3,0.2-0.5,0.5-0.5h0.5l0,0v-0.5
				c0-0.3,0.2-0.5,0.5-0.5h0.5l0,0v-0.5c0-0.3-0.4-0.5-0.8-0.5c-0.5,0-3,2.2-5.7,5c-2.8,2.7-5.1,5-5.3,5h-0.2v-1h-0.5
				c-0.3,0-0.5,0.2-0.5,0.5v0.5h1l-2.5,2c-1.4,1.2-2.5,2.3-2.5,2.5s-0.5,0.6-1,0.9l-1,0.6l0,0v-0.8c0-0.3-2.1,1.3-4.5,3.7
				c-2.5,2.4-4.3,4.6-4,4.7l0.5,0.4l0,0v-0.5c0-0.3,0.2-0.5,0.5-0.5h0.5l0,0v-0.5c0-0.3,0.2-0.5,0.5-0.5h0.5l0,0v-0.5
				c0-0.3,0.2-0.5,0.5-0.5h0.5l0,0v-0.5c0-0.3,0.2-0.5,0.5-0.5h0.5l0,0v-0.5c0-0.3,0.2-0.5,0.5-0.5h0.5l0,0v-0.5
				c0-0.3,0.2-0.5,0.5-0.5h0.5l0,0v-0.5c0-0.3,0.2-0.5,0.5-0.5h0.5l0,0v-0.5c0-0.3,0.2-0.5,0.5-0.5h0.5l0,0v0.5
				c0,0.2-0.3,0.5-0.5,0.5h-0.5l0,0v0.5c0,0.2-0.3,0.5-0.5,0.5h-0.5l0,0v0.5c0,0.2-0.3,0.5-0.5,0.5h-0.5l0,0v0.5
				c0,0.2-0.3,0.5-0.5,0.5h-0.5l0,0v0.5c0,0.2-0.3,0.5-0.5,0.5h-0.5l0,0v0.5c0,0.2-0.3,0.5-0.5,0.5h-0.5l0,0v0.5
				c0,0.2-0.3,0.5-0.5,0.5h-0.5l0,0v0.5c0,0.2-0.3,0.5-0.5,0.5h-0.5l0,0l-0.5,0.6c-0.3,0.4-0.5,0.8-0.5,1c0,0.2-0.3,0.4-0.5,0.4
				h-0.5l0,0v0.5c0,0.2-0.3,0.5-0.5,0.5h-0.5l0,0v0.5c0,0.2-0.3,0.5-0.5,0.5h-0.5l0,0v0.5c0,0.2-0.3,0.5-0.5,0.5h-0.5l0,0v0.5
				c0,0.2-0.3,0.5-0.5,0.5h-0.5l0,0v-0.5c0-0.3-0.3-0.5-0.5-0.5c-0.3,0-0.5,0.2-0.5,0.5v0.5l0,0h-0.5c-0.3,0-0.5,0.2-0.5,0.5v0.5
				l0,0h-0.5c-0.3,0-0.5,0.2-0.5,0.5v0.5l0,0h-0.5c-0.3,0-0.5,0.2-0.5,0.5v0.5l0,0h-0.5c-0.3,0-0.5,0.2-0.5,0.5v0.5l0,0l-1.5,1.7
				c-0.9,0.9-1.5,1.7-1.5,1.8s-0.3,0.4-0.5,0.8l-0.5,0.7l0,0h-0.5c-0.3,0-0.5,0.2-0.5,0.5v0.5l0,0h-0.5c-0.3,0-0.5,0.2-0.5,0.5v0.5
				l0,0h-0.5c-0.3,0-0.5,0.2-0.5,0.5v0.5l0,0h-0.5c-0.3,0-0.5,0.2-0.5,0.5v0.5l0,0h-0.5c-0.3,0-0.5,0.2-0.5,0.5v0.5l0,0h-0.5
				c-0.3,0-0.5,0.2-0.5,0.5v0.5l0,0h-0.5c-0.3,0-0.5,0.2-0.5,0.5v0.5l0,0l-6.8,5.9c-3.7,3.3-6.8,6-6.8,6c-0.1,0-0.4,0.3-0.8,0.6
				l-0.6,0.5l0,0V226c0-0.3-0.7,0-1.6,0.7c-0.8,0.7-1.3,1.4-1,1.6l0.6,0.4l0,0v-0.5c0-0.3,0.2-0.5,0.5-0.5h0.5l0.1,0.1l-0.1-1.1h1
				l-1.7,2c-0.9,1.1-1.7,2-1.8,2c-0.1,0-0.5,0.2-0.9,0.5l-0.6,0.5l0,0v0.5c0,0.2-0.3,0.5-0.5,0.5h-0.5l0,0v0.5
				c0,0.2-0.3,0.5-0.5,0.5h-0.5l0,0v0.5c0,0.2-0.3,0.5-0.5,0.5h-0.5l0,0v0.5c0,0.2-0.3,0.5-0.5,0.5h-0.5l0,0v0.5
				c0,0.2-0.3,0.5-0.5,0.5h-0.5l0,0v0.5c0,0.2-0.3,0.5-0.5,0.5h-0.5l0,0v0.5c0,0.2-0.3,0.5-0.5,0.5h-0.5l0,0v0.5
				c0,0.2-0.3,0.5-0.5,0.5h-0.5l0,0v-0.5c0-0.3-0.3-0.5-0.5-0.5c-0.3,0-0.5,0.2-0.5,0.5v0.5l0,0h-0.5c-0.3,0-0.5,0.2-0.5,0.5v0.5
				l0,0h-0.5c-0.3,0-0.5,0.2-0.5,0.5v0.5l0,0h-0.5c-0.3,0-0.5,0.2-0.5,0.5v0.5l0,0h-0.5c-0.3,0-0.5,0.2-0.5,0.5v0.5l0,0h-0.5
				c-0.3,0-0.5,0.2-0.5,0.5v0.5l0,0v0.5c0,0.2-0.3,0.5-0.5,0.5H545.4 M560.4,231.7h-0.5c-0.3,0-0.5,0.2-0.5,0.5v0.5l0,0h-0.5
				c-0.3,0-0.5,0.2-0.5,0.5v0.5l0,0h-0.5c-0.3,0-0.5,0.2-0.5,0.5v0.5l0,0h-0.5c-0.3,0-0.5,0.2-0.5,0.5v0.5l0,0h-0.5
				c-0.3,0-0.5,0.2-0.5,0.5v0.5l0,0h-0.5c-0.3,0-0.5,0.2-0.5,0.5v0.5l0,0h-0.5c-0.3,0-0.5,0.2-0.5,0.5v0.5l0,0l-0.5-0.4
				c-0.3-0.1,1.3-2,3.5-4.2c2.2-2.1,4-3.5,4-3.2V231.7 M576.4,197.7c0-2-1.1-22.2-3.2-58.3c-0.8-13.9-0.8-21.2-0.2-21.8
				c0.7-0.7,1.2,4.9,1.7,16.8c0.9,25.5,2.5,57.1,3.1,61.5c0.3,2.2,0.1,3.8-0.4,3.8C576.8,199.7,576.4,198.8,576.4,197.7
				 M586.9,186.5c-0.3-1.7-0.5-7.4-0.5-12.7c0-5.3-0.5-16.7-1-25.2c-1.6-26.4-2.1-42.6-1.1-39.9c0.5,1.3,1.6,19.9,2.4,41.2
				C588.2,185.1,588.2,195.2,586.9,186.5"/>
			<path id="p1FGtMsMmy" class="st1" d="M554.4,244.7h0.5c0.2,0,0.5-0.3,0.5-0.5v-0.5l0,0h0.5c0.2,0,0.5-0.3,0.5-0.5v-0.5l0,0h0.5
				c0.2,0,0.5-0.3,0.5-0.5v-0.5l0,0h0.5c0.2,0,0.5-0.3,0.5-0.5v-0.5l0,0h0.5c0.2,0,0.5-0.3,0.5-0.5v-0.5l0,0h0.5
				c0.2,0,0.5-0.3,0.5-0.5v-0.5l0,0h0.5c0.2,0,0.5-0.3,0.5-0.5v-0.5l0,0h0.5c0.2,0,0.5-0.3,0.5-0.5v-0.5l0,0h0.5
				c0.2,0,0.5-0.3,0.5-0.5v-0.5l0,0h0.5c0.2,0,0.5-0.3,0.5-0.5v-0.5l0,0h0.5c0.2,0,0.5-0.3,0.5-0.5v-0.5l0,0h0.5
				c0.2,0,0.5-0.3,0.5-0.5v-0.5l0,0h0.5c0.2,0,0.5-0.3,0.5-0.5v-0.5l0,0h0.5c0.2,0,0.5-0.3,0.5-0.5v-0.5l0,0h0.5
				c0.2,0,0.5-0.3,0.5-0.5v-0.5l0,0h0.5c0.2,0,0.5-0.3,0.5-0.5v-0.5l0,0h0.5c0.2,0,0.5-0.3,0.5-0.5v-0.5l0,0h0.5
				c0.2,0,0.5-0.3,0.5-0.5v-0.5l0,0h0.5c0.2,0,0.5-0.3,0.5-0.5v-0.5l0,0h0.5c0.2,0,0.5-0.3,0.5-0.5v-0.5l0,0h0.5
				c0.2,0,0.5,0.2,0.5,0.5v0.5l0,0h-0.5c-0.3,0-0.5,0.2-0.5,0.5v0.5l0,0h-0.5c-0.3,0-0.5,0.2-0.5,0.5v0.5l0,0h-0.5
				c-0.3,0-0.5,0.2-0.5,0.5v0.5l0,0h-0.5c-0.3,0-0.5,0.2-0.5,0.5v0.5l0,0h-0.5c-0.3,0-0.5,0.2-0.5,0.5v0.5l0,0h-0.5
				c-0.3,0-0.5,0.2-0.5,0.5v0.5l0,0h-0.5c-0.3,0-0.5,0.2-0.5,0.5v0.5l0,0h-0.5c-0.3,0-0.5,0.2-0.5,0.5v0.5l0,0h-0.5
				c-0.3,0-0.5,0.2-0.5,0.5v0.5l0,0h-0.5c-0.3,0-0.5,0.2-0.5,0.5v0.5l0,0h-0.5c-0.3,0-0.5,0.2-0.5,0.5v0.5l0,0h-0.5
				c-0.3,0-0.5,0.2-0.5,0.5v0.5l0,0h-0.5c-0.3,0-0.5,0.2-0.5,0.5v0.5l0,0h-0.5c-0.3,0-0.5,0.2-0.5,0.5v0.5l0,0h-0.5
				c-0.3,0-0.5,0.2-0.5,0.5v0.5l0,0h-0.5c-0.3,0-0.5,0.2-0.5,0.5v0.5l0,0h-0.5c-0.3,0-0.5,0.2-0.5,0.5v0.5l0,0h-0.5
				c-0.3,0-0.5,0.2-0.5,0.5v0.5l0,0h-0.5c-0.3,0-0.5,0.2-0.5,0.5v0.5l0,0h-0.5c-0.3,0-0.5,0.2-0.5,0.5v0.5l0,0h-0.5
				c-0.3,0-0.5-0.3-0.5-0.5V244.7"/>
			<path id="pqQ19nnOh" class="st1" d="M577.4,220.7h0.5c0.2,0,0.5-0.3,0.5-0.5v-0.5l0,0h0.5c0.2,0,0.5-0.3,0.5-0.5v-0.5l0,0h0.5
				c0.2,0,0.5-0.3,0.5-0.5v-0.5l0,0h0.5c0.2,0,0.5-0.3,0.5-0.5v-0.5l0,0h0.5c0.2,0,0.5-0.3,0.5-0.5v-0.5l0,0h0.5
				c0.2,0,0.5-0.3,0.5-0.5v-0.5l0,0h0.5c0.2,0,0.5-0.3,0.5-0.5v-0.5l0,0h0.5c0.2,0,0.5-0.3,0.5-0.5v-0.5l0,0h0.5
				c0.2,0,0.5-0.3,0.5-0.5v-0.5l0,0h0.5c0.2,0,0.5-0.3,0.5-0.5v-0.5l0,0h0.5c0.2,0,0.5-0.3,0.5-0.5v-0.5l0,0h0.5
				c0.2,0,0.5-0.3,0.5-0.5v-0.5l0,0h0.5c0.2,0,0.5-0.3,0.5-0.5v-0.5l0,0h0.5c0.2,0,0.5-0.3,0.5-0.5v-0.5l0,0h0.5
				c0.2,0,0.5-0.3,0.5-0.5v-0.5l0,0h0.5c0.2,0,0.5-0.3,0.5-0.5v-0.5l0,0h0.5c0.2,0,0.5-0.3,0.5-0.5v-0.5l0,0h0.5
				c0.2,0,0.5-0.3,0.5-0.5v-0.5l0,0h0.5c0.2,0,0.5,0.2,0.5,0.5v0.5l0,0h-0.5c-0.3,0-0.5,0.2-0.5,0.5v0.5l0,0h-0.5
				c-0.3,0-0.5,0.2-0.5,0.5v0.5l0,0h-0.5c-0.3,0-0.5,0.2-0.5,0.5v0.5l0,0h-0.5c-0.3,0-0.5,0.2-0.5,0.5v0.5l0,0h-0.5
				c-0.3,0-0.5,0.2-0.5,0.5v0.5l0,0h-0.5c-0.3,0-0.5,0.2-0.5,0.5v0.5l0,0h-0.5c-0.3,0-0.5,0.2-0.5,0.5v0.5l0,0h-0.5
				c-0.3,0-0.5,0.2-0.5,0.5v0.5l0,0h-0.5c-0.3,0-0.5,0.2-0.5,0.5v0.5l0,0h-0.5c-0.3,0-0.5,0.2-0.5,0.5v0.5l0,0h-0.5
				c-0.3,0-0.5,0.2-0.5,0.5v0.5l0,0h-0.5c-0.3,0-0.5,0.2-0.5,0.5v0.5l0,0h-0.5c-0.3,0-0.5,0.2-0.5,0.5v0.5l0,0h-0.5
				c-0.3,0-0.5,0.2-0.5,0.5v0.5l0,0h-0.5c-0.3,0-0.5,0.2-0.5,0.5v0.5l0,0h-0.5c-0.3,0-0.5,0.2-0.5,0.5v0.5l0,0h-0.5
				c-0.3,0-0.5,0.2-0.5,0.5v0.5l0,0h-0.5c-0.3,0-0.5,0.2-0.5,0.5v0.5l0,0h-0.5c-0.3,0-0.5-0.3-0.5-0.5V220.7"/>
		</g>
	</g>
	<g id="l6sEkgMPN35EmfQF3ytKVglj">
		<g>
			<path id="p7zZIZMXj" class="st2" d="M651.4,267.7h-0.5c-0.3,0-0.8,0-1,0h-0.5h-1h-0.5c-0.3,0-0.8,0-1,0h-0.5l-0.5-0.5l-0.5-0.5
				h-1h-2h-2v-1h-0.5c-0.3,0-0.8,0-1,0h-0.5h-1h-1.5h-1.5l-0.5-0.5l-0.5-0.5h-1.5c-0.9,0-1.8,0-2,0c-0.3,0-0.8,0-1,0h-0.5v-1h-0.5
				c-0.3,0-0.8,0-1,0h-0.5h-1h-1.5h-1.5l-0.5-0.5l-0.5-0.5h-1.5c-0.9,0-1.8,0-2,0c-0.3,0-0.8,0-1,0h-0.5l-0.5-0.5l-0.5-0.5h-1h-1.5
				h-1.5l-0.5-0.5l-0.5-0.5h-1.5c-0.9,0-1.8,0-2,0c-0.3,0-0.8,0-1,0h-0.5l-0.5-0.5l-0.5-0.5h-1h-1.5h-1.5l-0.5-0.5l-0.5-0.5h-1h-1.5
				c-0.9,0-1.8,0-2,0c-0.3,0-0.8,0-1,0h-0.5l-0.5-0.5l-0.5-0.5h-1h-1.5h-1.5l-0.5-0.5l-0.5-0.5h-1.5c-0.9,0-1.8,0-2,0
				c-0.3,0-0.8,0-1,0h-0.5l-0.5-0.5l-0.5-0.5h-2h-2l-0.5-0.5l-0.5-0.5h-1h-2h-2l-0.5-0.5l-0.5-0.5h-1h-1.5h-1.5l-0.5-0.5l-0.5-0.5
				h-1h-2h-2v-1h-0.5c-0.3,0-0.8,0-1,0h-0.5h-1h-1.5h-1.5l-0.5-0.5l-0.5-0.5h-0.5c-0.3,0-0.8,0-1,0h-0.5v-0.4l0.2-0.4l0.3-0.7
				l0.5-0.5l1.5-1.5l1.5-1.5l0,0h0.5c0.2,0,0.5-0.3,0.5-0.5v-0.5l0,0h0.5c0.2,0,0.5-0.3,0.5-0.5v-0.5l0,0h0.5c0.2,0,0.5-0.3,0.5-0.5
				v-0.5l0,0h0.5c0.2,0,0.5-0.3,0.5-0.5v-0.5l0,0h0.5c0.2,0,0.5-0.3,0.5-0.5v-0.5l0,0h0.5c0.2,0,0.5-0.3,0.5-0.5v-0.5l0,0h0.5
				c0.2,0,0.5-0.3,0.5-0.5v-0.5l0,0h0.5c0.2,0,0.5-0.3,0.5-0.5v-0.5l0,0h0.5c0.2,0,0.5-0.3,0.5-0.5v-0.5l0,0h0.5
				c0.2,0,0.5-0.3,0.5-0.5v-0.5l0,0h0.5c0.2,0,0.5-0.3,0.5-0.5v-0.5l0,0h0.5c0.2,0,0.5-0.3,0.5-0.5v-0.5l0,0h0.5
				c0.2,0,0.5-0.3,0.5-0.5v-0.5l0,0h0.5c0.2,0,0.5-0.3,0.5-0.5v-0.5l0,0h0.5c0.2,0,0.5-0.3,0.5-0.5v-0.5l0,0h0.5
				c0.2,0,0.5-0.3,0.5-0.5v-0.5l0,0h0.5c0.2,0,0.5-0.3,0.5-0.5v-0.5l0,0h0.5c0.2,0,0.5-0.3,0.5-0.5v-0.5l0,0h0.5
				c0.2,0,0.5-0.3,0.5-0.5v-0.5l0,0h0.5c0.2,0,0.5-0.3,0.5-0.5v-0.5l0,0h0.5c0.2,0,0.5-0.3,0.5-0.5v-0.5l0,0l1-1.5l1-1.5l0,0h0.5
				c0.2,0,0.5-0.3,0.5-0.5v-0.5l0,0h0.5c0.2,0,0.5-0.3,0.5-0.5v-0.5l0,0h0.5c0.2,0,0.5-0.3,0.5-0.5v-0.5l0,0h0.5
				c0.2,0,0.5-0.3,0.5-0.5v-0.5l0,0h0.5c0.2,0,0.5-0.3,0.5-0.5v-0.5l0,0h0.5c0.2,0,0.5-0.3,0.5-0.5v-0.5l0,0h0.5
				c0.2,0,0.5-0.3,0.5-0.5v-0.5l0,0h0.5c0.2,0,0.5-0.3,0.5-0.5v-0.5l0,0h0.5c0.2,0,0.5-0.3,0.5-0.5v-0.5l0,0h0.5
				c0.2,0,0.5-0.3,0.5-0.5v-0.5l0,0h0.5c0.2,0,0.5-0.3,0.5-0.5v-0.5l0,0h0.5c0.2,0,0.5-0.3,0.5-0.5v-0.5l0,0h0.5
				c0.2,0,0.5-0.3,0.5-0.5v-0.5l0,0h0.5c0.2,0,0.5-0.3,0.5-0.5v-0.5l0,0h0.5c0.2,0,0.5-0.3,0.5-0.5v-0.5l0,0h0.5
				c0.2,0,0.5-0.3,0.5-0.5v-0.5l0,0h0.5c0.2,0,0.5-0.3,0.5-0.5v-0.5l0,0h0.5c0.2,0,0.5-0.3,0.5-0.5v-0.5l0,0h0.5
				c0.2,0,0.5-0.3,0.5-0.5v-0.5l0,0l0.5-1c0.3-0.6,0.7-1,0.8-1c0.2,0,0.6-0.3,1-0.7c0.4-0.4,0.7-0.7,0.7-0.8c0,0,1.5-1.8,3.5-3.8
				l3.5-3.7l0,0h0.5c0.2,0,0.5-0.3,0.5-0.5v-0.5l0,0h0.5c0.2,0,0.5-0.3,0.5-0.5v-0.5l0,0h0.5c0.2,0,0.5-0.3,0.5-0.5v-0.5l0,0h0.5
				c0.2,0,0.5-0.3,0.5-0.5v-0.5l0,0h0.5c0.2,0,0.5-0.3,0.5-0.5v-0.5l0,0h0.5c0.2,0,0.5-0.3,0.5-0.5v-0.5l0,0h0.5
				c0.2,0,0.5-0.3,0.5-0.5v-0.5l0,0h0.5c0.2,0,0.5-0.3,0.5-0.5v-0.5l0,0h0.5c0.2,0,0.5-0.3,0.5-0.5v-0.5l0,0h0.5
				c0.2,0,0.5-0.3,0.5-0.5v-0.5l0,0h0.5c0.2,0,0.5-0.3,0.5-0.5v-0.5l0,0h0.5c0.2,0,0.5-0.3,0.5-0.5v-0.5l0,0h0.5
				c0.2,0,0.5-0.3,0.5-0.5v-0.5l0,0h0.5c0.2,0,0.5-0.3,0.5-0.5v-0.5l0,0h0.5c0.2,0,0.5-0.3,0.5-0.5v-0.5l0,0h0.5
				c0.2,0,0.5-0.3,0.5-0.5v-0.5l0,0h0.5c0.2,0,0.5-0.3,0.5-0.5v-0.5l0,0h0.5c0.2,0,0.5-0.3,0.5-0.5v-0.5l0,0h0.5
				c0.2,0,0.5-0.3,0.5-0.5v-0.5l0,0h0.5c0.2,0,0.5-0.3,0.5-0.5v-0.5l0,0h0.5c0.2,0,0.5-0.3,0.5-0.5v-0.5l0,0h0.5
				c0.2,0,0.5-0.3,0.5-0.5v-0.5l0,0h0.5c0.2,0,0.5-0.3,0.5-0.5v-0.5l0,0l1-0.6c0.5-0.3,3.3-3.4,6.1-6.8c2.8-3.4,24.4-25.6,48.1-49.4
				c23.7-23.7,43.7-43.4,44.4-43.7l1.4-0.5l0,0l-0.1,0.7c0,0.4,0.3,1.3,0.5,2l0.6,1.3l0,0v5.5c0,3,0,5.7,0,6c0,0.2,0,4.1,0,8.5v8
				l0,0h-0.5c-0.3,0-0.5,0.2-0.5,0.5c0,0.2,0,1.1,0,2v1.5l0,0v1.5c0,0.8,0,1.7,0,2c0,0.2,0,2.5,0,5v4.5l-0.5,0.5l-0.5,0.5v0.5
				c0,0.2,0,0.7,0,1c0,0.2,0,1.1,0,2v1.5l-0.5,0.5l-0.5,0.5v3.5c0,1.9,0,3.7,0,4v0.5l-0.5,0.5l-0.5,0.5v1.5v1.5l-0.5,0.5l-0.5,0.5
				v0.7c0,0.4-0.2,2.4-0.5,4.5l-0.5,3.8l-0.5,0.5l-0.5,0.5v0.7c0,0.4-0.2,2.2-0.5,4l-0.5,3.3l-0.5,0.5l-0.5,0.5l-0.7,3.2
				c-0.3,1.8-0.7,4.3-1,5.5l-0.3,2.3l-0.5,0.5l-0.5,0.5v0.4c0,0.3-1.2,4-2.7,8.3c-1.4,4.3-3,8.5-3.5,9.4c-0.4,1-0.8,2.2-0.8,2.8v1.1
				l-0.5,0.5l-0.5,0.5l-3.5,8.5l-3.5,8.5l-0.5,0.5l-0.5,0.5l-0.1,0.2c-0.1,0.1-0.3,0.8-0.5,1.5l-0.4,1.3l-0.5,0.5l-0.5,0.5l-1,2
				l-1,2l-0.5,0.5l-0.5,0.5l-1.5,1l-1.5,1h-1h-0.5c-0.3,0-0.8,0-1,0h-0.5v1h-1.5c-0.9,0-1.8,0-2,0c-0.3,0-2.1,0-4,0h-3.5v-1h-0.5
				c-0.3,0-0.8,0-1,0h-0.5v1h-3.5h-3.5l0,0l-0.8-0.1c-0.4,0-2,0.2-3.5,0.5l-2.7,0.6l0,0h-1.5c-0.9,0-1.8,0-2,0c-0.3,0-0.8,0-1,0
				h-0.5l0,0l-1.3-0.1c-0.7,0-1.9,0.3-2.7,0.6c-1.3,0.5-1.3,0.7,0,1.5c0.8,0.5,2.7,0.9,4.2,0.9s3,0.1,3.3,0.1h0.5l0,0h1.5
				c0.8,0,1.7,0,2,0c0.2,0,5.6,0,12,0h11.5v1v1v1l-1.5,2.5l-1.5,2.5l-0.5,0.5l-0.5,0.5l-1.5,1.5l-1.5,1.5l0,0l-1.5,1.1
				c-0.9,0.6-1.5,1.3-1.5,1.5c0,0.2,0.2,0.4,0.5,0.4h0.5l0,0l-1.2,1.5c-0.6,0.8-1.3,1.5-1.5,1.5s-0.3,0.2-0.3,0.5v0.5l-0.5,0.5
				l-0.5,0.5l-2.7,3l-2.7,3h-15.3c-8.5,0-16.5,0-17.8,0h-2.5l0,0h-1.5c-0.9,0-1.5,0.4-1.5,1c0,0.5,0.4,1,1,1c0.5,0,1.2,0,1.5,0h0.5
				l0,0h1.5c0.8,0,1.7,0,2,0c0.2,0,0.9,0,1.5,0h1l0.5,0.5l0.5,0.5h1h0.5c0.2,0,0.7,0,1,0c0.2,0,1.1,0,2,0h1.5l0,0v0.5
				c0,0.2,0.2,0.5,0.5,0.5c0.2,0,1.1,0,2,0h1.5l0,0h1.5c0.8,0,1.7,0,2,0c0.2,0,2.5,0,5,0h4.5v1h-0.5c-0.3,0-0.5,0.2-0.5,0.5v0.5h1
				v0.3c0,0.2-0.3,0.6-0.5,1l-0.5,0.7l-0.5,0.5l-0.5,0.5l0,0h-0.5c-0.3,0-0.5,0.2-0.5,0.5v0.5l0,0h-0.5c-0.3,0-0.5,0.2-0.5,0.5v0.5
				l0,0l-0.5,0.5l-0.5,0.5l-2.5,2.7c-1.4,1.5-2.5,2.8-2.5,3c0,0.1-0.3,0.3-0.5,0.3h-0.5h-1h-1h-2h-2 M681.4,197.1
				c1.1-0.3,2.6-0.3,3.5,0c0.8,0.3-0.1,0.6-2,0.6C680.6,197.7,680.1,197.4,681.4,197.1 M658.9,196.1c1.9-0.3,5-0.3,7,0
				c2.2,0.4,1,0.6-3.5,0.6C657.8,196.7,656.6,196.5,658.9,196.1 M639.4,195.1c1.6-0.3,4.1-0.3,5.5,0c1.4,0.3,0.1,0.6-3,0.6
				C638.1,195.7,637.3,195.5,639.4,195.1"/>
			<path id="pMpszGljz" class="st2" d="M547.4,243.7h0.5c0.2,0,0.5-0.3,0.5-0.5v-0.5l0,0h0.5c0.2,0,0.5-0.3,0.5-0.5v-0.5l0,0h0.5
				c0.2,0,0.5-0.3,0.5-0.5v-0.5l0,0h0.5c0.2,0,0.5-0.3,0.5-0.5v-0.5l0.5,0.5l0.5-0.5v-1l0.4-0.3c0.2-0.1,2.2-2,4.5-4.2
				c2.2-2.2,4.1-3.6,4.1-3.3v0.8l0,0h-0.5c-0.3,0-0.5,0.2-0.5,0.5v0.5l0,0h-0.5c-0.3,0-0.5,0.2-0.5,0.5v0.5l0,0h-0.5
				c-0.3,0-0.5,0.2-0.5,0.5v0.5l0,0h-0.5c-0.3,0-0.5,0.2-0.5,0.5v0.5l0,0h-0.5c-0.3,0-0.5,0.2-0.5,0.5v0.5l0,0h-0.5
				c-0.3,0-0.5,0.2-0.5,0.5v0.5l0,0h-0.5c-0.3,0-0.5,0.2-0.5,0.5v0.5l-0.9,0.8l-0.1-0.8v1h-0.5c-0.3,0-0.5,0.2-0.5,0.5v0.5l0,0h-0.5
				c-0.3,0-0.5,0.2-0.5,0.5v0.5l0,0h-0.5c-0.3,0-0.5,0.2-0.5,0.5v0.5l0,0h-0.5c-0.3,0-0.5,0.2-0.5,0.5v0.5l0,0h-0.5
				c-0.3,0-0.5,0.2-0.5,0.5v0.5l0,0h-0.5c-0.3,0-0.5-0.3-0.5-0.5V243.7"/>
			<path id="pBt4J01LD" class="st2" d="M592.4,200.7h0.5c0.2,0,0.5-0.3,0.5-0.5v-0.5l0,0h0.5c0.2,0,0.5-0.3,0.5-0.5v-0.5l0,0h0.5
				c0.2,0,0.5-0.3,0.5-0.5v-0.5l0.5,0.5l0.5-0.5l0.5-0.5l0.3-0.4l0.2-1.1l0.7-0.6c0.4-0.4,1.3-1.1,2-1.7c0.7-0.5,1.3-0.7,1.3-0.4
				v0.7l0,0h-0.5c-0.3,0-0.5,0.2-0.5,0.5v0.5l0,0h-0.5c-0.3,0-0.5,0.2-0.5,0.5v0.5l0,0h-0.5c-0.3,0-0.5,0.2-0.5,0.5v0.5l0.1,0.1
				h-1.3l0.2,0.9h-0.5c-0.3,0-0.5,0.2-0.5,0.5v0.5l0,0h-0.5c-0.3,0-0.5,0.2-0.5,0.5v0.5l0,0h-0.5c-0.3,0-0.5,0.2-0.5,0.5v0.5l0,0
				h-0.5c-0.3,0-0.5,0.2-0.5,0.5v0.5l0,0h-0.5c-0.3,0-0.5-0.3-0.5-0.5V200.7"/>
			<path id="pIumEtUFn" class="st2" d="M577.4,197.7c0-2-1.1-22.2-3.2-58.3c-0.8-13.9-0.8-21.2-0.2-21.8c0.7-0.7,1.2,4.9,1.7,16.8
				c0.9,25.5,2.5,57.1,3.1,61.5c0.3,2.2,0.1,3.8-0.4,3.8C577.8,199.7,577.4,198.8,577.4,197.7"/>
			<path id="p37QkJTgN" class="st2" d="M611.4,183.7h-0.5c-0.3,0-0.5,0.2-0.5,0.5v0.5l0,0h-0.5c-0.3,0-0.5,0.2-0.5,0.5v0.5l0,0h-0.5
				c-0.3,0-0.5,0.2-0.5,0.5v0.5l0,0h-0.5c-0.3,0-0.5,0.2-0.5,0.5v0.5l0,0h-0.5c-0.3,0-0.5,0.2-0.5,0.5v0.5l0,0h-0.5
				c-0.3,0-0.5,0.2-0.5,0.5v0.5l0,0h-0.5c-0.3,0-0.5,0.2-0.5,0.5v0.5l0,0h-0.5c-0.3,0-0.5,0.2-0.5,0.5v0.5l0,0l-0.5-0.4
				c-0.3-0.1,1.5-2.3,4-4.7c2.4-2.4,4.5-4,4.5-3.7V183.7"/>
			<path id="pGWm5D8nC" class="st2" d="M587.9,186.5c-0.3-1.7-0.5-7.4-0.5-12.7c0-5.3-0.5-16.7-1-25.2c-1.6-26.4-2.1-42.6-1.1-39.9
				c0.5,1.3,1.6,19.9,2.4,41.2C589.2,185.1,589.2,195.2,587.9,186.5"/>
		</g>
	</g>
	<g id="l6x9tx5swJUyrq8jMLsTt9jj">
		<g>
			<path id="p9D4L5EQD" class="st3" d="M273.1,519.2l0.3-0.5v-1l0.6-0.5c0.4-0.3,0.8-0.5,1-0.5h0.4l0,0l0.5-1l0.5-1l0,0l0.4,0.6
				c0.3,0.3-0.2,1.2-0.9,2c-0.8,0.7-1.7,1.4-2,1.4h-0.5l0,0l-0.5,0.5l-0.4,0.3L273.1,519.2"/>
			<path id="p1AaLwbleq" class="st3" d="M289.4,498.7v-0.5c0-0.3,0.2-0.5,0.5-0.5h0.5l0,0v-0.5c0-0.3,0.2-0.5,0.5-0.5h0.5l0,0v-0.5
				c0-0.3,0.2-0.5,0.5-0.5h0.5l0,0v-0.5c0-0.3,0.2-0.5,0.5-0.5h0.5l0,0v-0.5c0-0.3,0.2-0.5,0.5-0.5h0.5l0,0v-0.5
				c0-0.3,0.2-0.5,0.5-0.5h0.5l0,0v-0.5c0-0.3,0.2-0.5,0.5-0.5h0.5l0,0l0.2-0.8l0.8-0.2v0.5c0,0.2-0.3,0.5-0.5,0.5h-0.5l0,0v0.5
				c0,0.2-0.3,0.5-0.5,0.5h-0.5l0,0v0.5c0,0.2-0.3,0.5-0.5,0.5h-0.5l0,0v0.5c0,0.2-0.3,0.5-0.5,0.5h-0.5l0,0v0.5
				c0,0.2-0.3,0.5-0.5,0.5h-0.5l0,0v0.5c0,0.2-0.3,0.5-0.5,0.5h-0.5l0,0v0.5c0,0.2-0.3,0.5-0.5,0.5h-0.5l0,0v0.6
				c0,0.4-0.3,0.8-0.5,1l-0.5,0.4"/>
			<path id="preHtu9pR" class="st3" d="M319.4,483.7h0.5c0.2,0,0.5-0.3,0.5-0.5v-0.5l0,0h0.5c0.2,0,0.5-0.3,0.5-0.5v-0.5l0,0h0.5
				c0.2,0,0.5-0.3,0.5-0.5v-0.5l0,0h0.5c0.2,0,0.5-0.3,0.5-0.5v-0.5l0,0h0.5c0.2,0,0.5-0.3,0.5-0.5v-0.5l0,0h0.5
				c0.2,0,0.5-0.3,0.5-0.5v-0.5l0,0h0.5c0.2,0,0.5,0.2,0.5,0.5v0.5l0,0h-0.5c-0.3,0-0.5,0.2-0.5,0.5v0.5l0,0h-0.5
				c-0.3,0-0.5,0.2-0.5,0.5v0.5l0,0h-0.5c-0.3,0-0.5,0.2-0.5,0.5v0.5l0,0h-0.5c-0.3,0-0.5,0.2-0.5,0.5v0.5l0,0h-0.5
				c-0.3,0-0.5,0.2-0.5,0.5v0.5l0,0h-0.5c-0.3,0-0.5,0.2-0.5,0.5v0.5l0,0h-0.5c-0.3,0-0.5-0.3-0.5-0.5V483.7"/>
			<path id="pd7g6nfGZ" class="st3" d="M305.4,480.7h0.5c0.2,0,0.5-0.3,0.5-0.5v-0.5l0,0h0.5c0.2,0,0.5-0.3,0.5-0.5v-0.5l0,0h0.5
				c0.2,0,0.5-0.3,0.5-0.5v-0.5l0,0h0.5c0.2,0,0.5-0.3,0.5-0.5v-0.5l0,0h0.5c0.2,0,0.5-0.3,0.5-0.5v-0.5l0,0h0.5
				c0.2,0,0.5-0.3,0.5-0.5v-0.5l0,0h0.5c0.2,0,0.5-0.3,0.5-0.5v-0.5l0,0h0.5c0.2,0,0.5-0.3,0.5-0.5v-0.5l0,0h0.5
				c0.2,0,0.5-0.3,0.5-0.5v-0.5l0,0h0.5c0.2,0,0.5-0.3,0.5-0.5v-0.5l0,0h0.5c0.2,0,0.5-0.3,0.5-0.5v-0.5l0,0h0.5
				c0.2,0,0.5-0.3,0.5-0.5v-0.5l0,0h0.5c0.2,0,0.5-0.3,0.5-0.5v-0.5l0,0h0.5c0.2,0,0.5-0.3,0.5-0.5v-0.5l0,0h0.5
				c0.2,0,0.5-0.3,0.5-0.5v-0.5l0,0h0.5c0.2,0,0.5-0.3,0.5-0.5v-0.5l0.2,0.2l0.4-0.2l0.4,1H322c-0.2,0-0.6,0.2-1,0.5l-0.6,0.5l0,0
				l-0.5,0.6c-0.3,0.4-0.5,0.8-0.5,1c0,0.2-0.3,0.4-0.5,0.4h-0.5l0,0v0.5c0,0.2-0.3,0.5-0.5,0.5h-0.5l0,0v0.5c0,0.2-0.3,0.5-0.5,0.5
				h-0.5l0,0v0.5c0,0.2-0.3,0.5-0.5,0.5h-0.5l0,0v0.5c0,0.2-0.3,0.5-0.5,0.5h-0.5l0,0v0.5c0,0.2-0.3,0.5-0.5,0.5h-0.5l0,0v0.5
				c0,0.2-0.3,0.5-0.5,0.5h-0.5l0,0v0.5c0,0.2-0.3,0.5-0.5,0.5h-0.5l0,0v0.5c0,0.2-0.3,0.5-0.5,0.5h-0.5l0,0v0.5
				c0,0.2-0.3,0.5-0.5,0.5h-0.5l0,0v0.5c0,0.2-0.3,0.5-0.5,0.5h-0.5l0,0v0.5c0,0.2-0.3,0.5-0.5,0.5h-0.5l0,0v0.5
				c0,0.2-0.3,0.5-0.5,0.5h-0.5l0,0l-0.5,0.5l-0.5,0.1l0.7-0.1"/>
			<path id="p1HsYmFjwj" class="st3" d="M369.4,456.7h-2h-2h-1h-0.5c-0.3,0-0.8,0-1,0h-0.5h-1h-1c-0.6,0-1-0.3-1-0.5
				c0-0.3,2.2-0.5,5-0.5c2.7,0,5,0.2,5,0.5V456.7"/>
			<path id="p0191PMYE" class="st3" d="M390.4,454.7h-2h-2h-1h-1h-1h-1.5c-0.9,0-1.5-0.3-1.5-0.5c0-0.3,2.2-0.5,5-0.5
				c2.7,0,5,0.2,5,0.5V454.7"/>
			<path id="pf1uaRrwL" class="st3" d="M410.4,452.7h-0.5c-0.3,0-0.8,0-1,0h-0.5h-1h-0.5c-0.3,0-0.8,0-1,0h-0.5h-1h-1
				c-0.6,0-1-0.3-1-0.5c0-0.3,1.8-0.5,4-0.5c2.2,0,4,0.2,4,0.5V452.7"/>
			<path id="plPpfXfkR" class="st3" d="M433.4,450.7h-2h-2h-1h-0.5c-0.3,0-0.8,0-1,0h-0.5h-1h-1c-0.6,0-1-0.3-1-0.5
				c0-0.3,2.2-0.5,5-0.5c2.7,0,5,0.2,5,0.5V450.7"/>
			<path id="p9jwd7si7" class="st3" d="M455.4,443.7l-0.3,0.7l0.3,0.3h-0.5c-0.3,0-0.8,0-1,0h-0.5l0,0v0.5c0,0.2-0.3,0.5-0.5,0.5
				h-0.5l0,0v0.5c0,0.2-0.3,0.5-0.5,0.5h-0.5l0,0l0.1,0.8l-0.6,0.7l-0.8,0.2l-0.5,0.5l-1.2-0.2h-1.5c-0.9,0-1.8,0-2,0
				c-0.3,0-0.8,0-1,0h-0.5v1h-0.5c-0.3,0-0.8,0-1,0h-0.5h-1h-1h-1l-0.7-0.5c-0.3-0.2,2.2-0.7,5.6-1.1c4.3-0.5,7.1-1.5,9.1-3.1l3-2.3
				"/>
			<path id="p1EUPYyoPG" class="st3" d="M338.4,447.7v-3.5v-3.5l0,0h0.3c0.2,0,0.6-0.3,1-0.7s0.7-1.1,0.7-1.5c0-0.5-0.3-0.8-0.5-0.8
				h-0.5l0,0v-1.5c0-0.9,0-1.8,0-2c0-0.3,0-0.8,0-1v-0.5l0.5-0.5l0.5-0.5v-1v-1.5c0-0.9,0-1.8,0-2c0-0.3,0-2.1,0-4v-3.5h1v-0.5
				c0-0.3,0-0.8,0-1v-0.5v-1v-1.5c0-0.9,0-1.8,0-2c0-0.3,0-0.8,0-1v-0.5l0.5-0.5l0.5-0.5v-1v-4.5c0-2.5,0-4.8,0-5c0-0.3,0-1,0-1.5
				v-1l0.5-0.5l0.5-0.5v-1v-1c0-0.6,0-1.3,0-1.5c0-0.3,0-1.2,0-2v-1.5l0.5-0.5l0.5-0.5v-1v-1.5c0-0.9,0-1.8,0-2c0-0.3,0-2.1,0-4
				v-3.5l0.5-0.5l0.5-0.5v-1v-1c0-0.6,0-1.3,0-1.5c0-0.3,0-1.2,0-2v-1.5h1v-0.5c0-0.3,0-0.8,0-1v-0.5v-1v-4.5c0-2.5,0-4.8,0-5v-0.5
				h1v-0.5c0-0.3,0-0.8,0-1v-0.5v-1v-1.5c0-0.9,0-1.8,0-2c0-0.3,0-0.8,0-1v-0.5l0.5-0.5l0.5-0.5l1-1.5l1-1.5l0.5-0.5l0.5-0.5
				l0.5-0.7c0.2-0.4,0.5-0.8,0.5-1v-0.3l0.5-0.5l0.5-0.5l0,0l0.5-0.5l0.5-0.5l1-1.5l1-1.5l0.5-0.5l0.5-0.5l0,0l0.5-0.5l0.5-0.5
				l1-1.5l1-1.5l0.5-0.5l0.5-0.5v-0.5c0-0.3,0.1-0.5,0.3-0.5s0.9-0.7,1.5-1.5l1.2-1.5l0.5-0.5l0.5-0.5l0,0l0.5-0.5l0.5-0.5l1-1.5
				l1-1.5l0.5-0.5l0.5-0.5v-0.5c0-0.3,0.1-0.5,0.3-0.5s0.9-0.7,1.5-1.5l1.2-1.5l0.5-0.5l0.5-0.5l1-1.5l1-1.5l0.5-0.5l0.5-0.5
				l0.5-0.7c0.2-0.4,0.5-0.7,0.5-0.8c0-0.1,0.6-0.9,1.5-1.8l1.5-1.7l0.5-0.5l0.5-0.5v-0.5c0-0.3,0.1-0.5,0.3-0.5s0.9-0.7,1.5-1.5
				l1.2-1.5l0.5-0.5l0.5-0.5v-0.5c0-0.3,0.1-0.5,0.3-0.5s0.9-0.7,1.5-1.5l1.2-1.5l0.5-0.5l0.5-0.5l0,0l0.5-0.5l0.5-0.5l1-1.5l1-1.5
				l0.5-0.5l0.5-0.5l0,0l0.5-0.5l0.5-0.5l0.5-0.7c0.2-0.4,0.5-0.7,0.5-0.8c0-0.1,0.6-0.9,1.5-1.8l1.5-1.7l0.5-0.5l0.5-0.5v-0.5
				c0-0.3,0.1-0.5,0.3-0.5s0.9-0.7,1.5-1.5l1.2-1.5l0.5-0.5l0.5-0.5l0.5-0.7c0.2-0.4,0.5-0.7,0.5-0.8c0-0.1,0.6-0.9,1.5-1.8l1.5-1.7
				l0.5-0.5l0.5-0.5v-0.5c0-0.3,0.1-0.5,0.3-0.5s0.9-0.7,1.5-1.5l1.2-1.5l0.5-0.5l0.5-0.5l0.4-0.8c0.2-0.4,1.3-1.8,2.5-3l2.1-2.2
				l0.5-0.5l0.5-0.5l0,0l0.5-0.5l0.5-0.5v-0.5c0-0.3,0.1-0.5,0.3-0.5s0.9-0.7,1.5-1.5l1.2-1.5l0.5-0.5l0.5-0.5l0.4-0.8
				c0.2-0.4,1.3-1.8,2.5-3l2.1-2.2l0.5-0.5l0.5-0.5l0.5-0.7c0.2-0.4,0.5-0.7,0.5-0.8s0.6-0.9,1.5-1.8l1.5-1.7l0.5-0.5l0.5-0.5l0.5-1
				c0.3-0.6,0.7-1,0.8-1c0.2,0,1.3-1.2,2.5-2.5l2.2-2.5l0.5-0.5l0.5-0.5l0,0l0.5-0.5l0.5-0.5l0.5-0.7c0.2-0.4,0.5-0.7,0.5-0.8
				s0.6-0.9,1.5-1.8l1.5-1.7l0.5-0.5l0.5-0.5l0.5-1c0.3-0.6,0.7-1,0.8-1c0.2,0,1.3-1.2,2.5-2.5l2.2-2.5l0.5-0.5l0.5-0.5l0,0h0.5
				c0.2,0,0.5-0.3,0.5-0.5v-0.5l0,0l0.5-0.5l0.5-0.5l0.5-0.7c0.2-0.4,0.5-0.7,0.5-0.8s0.6-0.9,1.5-1.8l1.5-1.7l0.5-0.5l0.5-0.5l0,0
				l0.5-0.5l0.5-0.5l0.5-0.7c0.2-0.4,0.5-0.7,0.5-0.8c0,0,1.5-1.8,3.5-3.8l3.5-3.7l0.5-0.5l0.5-0.5l0,0l0.5-0.5l0.5-0.5l0.5-1
				c0.3-0.6,0.7-1,0.8-1c0.2,0,1.3-1.2,2.5-2.5l2.2-2.5l0.5-0.5l0.5-0.5l0,0h0.5c0.2,0,0.5-0.3,0.5-0.5v-0.5l0,0l0.5-0.5l0.5-0.5
				l1.5-1.5l1.5-1.5l0.5,0.5l0.5,0.5h1v0.5c0,0.2,0,0.7,0,1v0.5h-1v0.6c0,0.4,0.2,0.8,0.5,1l0.5,0.4l0,0l0.5,0.5l0.5,0.5v1.5v1.5
				l0,0h0.5c0.2,0,0.5,0.2,0.5,0.5v0.5l0,0l-0.7-0.5c-0.4-0.3-0.8-0.4-1-0.3c-0.1,0.2,0,1.3,0.3,2.5c0.3,1.3,0.8,2.3,1,2.3h0.4
				l0.7,0.2v0.5l-0.7,0.3v0.6c0,0.4,0.2,0.8,0.5,1l0.5,0.4h1v0.5c0,0.2,0,0.7,0,1v0.5l-0.5,0.5l0,0l0.5,0.5v1.5v1.5l0,0v0.5
				c0,0.4,0.2,1.1,0.6,1.6c0.3,0.5,0.7,0.8,1,0.6c0.2-0.2,0.4-0.7,0.4-1.1v-0.6l0,0v-4.5c0-2.5,0-4.8,0-5c0-0.3,0-4.8,0-10v-9.5v-1
				h0.5c0.2,0,0.5-0.3,0.5-0.5v-0.5h-1v-0.5c0-0.3,0-0.8,0-1v-0.5l0.5-0.5l0.5-0.5h0.5c0.2,0,0.5-0.3,0.5-0.5v-0.5l0.5-0.5l0.5-0.5
				l0,0h0.5c0.2,0,0.5-0.3,0.5-0.5v-0.5l0,0h0.5c0.2,0,0.5-0.3,0.5-0.5v-0.5l0,0l0.5-0.5l0.5-0.5l2.5-2.8c1.3-1.5,2.5-2.8,2.5-2.8
				c0-0.1,0.9-1,2-1.9c1.1-1,2-1.9,2-2c0,0,4.5-4.5,10-9.8l10-9.7l0,0v0.7c0,0.4,0.2,1.1,0.5,1.5l0.5,0.8l0,0v0.5c0,0.2,0,0.7,0,1
				v0.5h1v1.5v1.5l0.5,0.5l0.5,0.5v0.5c0,0.2,0,0.7,0,1c0,0.2,0,1.1,0,2v1.5v1l0.5,0.5l0.5,0.5v2v2l0.5,0.5l0.5,0.5v1.5
				c0,0.8,0,1.7,0,2c0,0.2,0,0.9,0,1.5v1v1l0.5,0.5l0.5,0.5v1.5v1.5v1l0.5,0.5l0.5,0.5v0.5c0,0.2,0,0.7,0,1c0,0.2,0,1.1,0,2v1.5
				l0.5,0.5l0.5,0.5v0.5c0,0.2,0,0.7,0,1c0,0.2,0,1.1,0,2v1.5l0.5,0.5l0.5,0.5v0.5c0,0.2,0,0.7,0,1c0,0.2,0,1.1,0,2v1.5l0.5,0.5
				l0.5,0.5v2v2v1v0.5c0,0.2,0.2,0.5,0.5,0.5h0.5v1v2v2v1l0.5,0.5l0.5,0.5v2v2v1l0.5,0.5l0.5,0.5v0.5c0,0.2,0,0.7,0,1
				c0,0.2,0,1.1,0,2v1.5l0.5,0.5l0.5,0.5v2v2v1l0.5,0.5l0.5,0.5v0.5c0,0.2,0,0.7,0,1c0,0.2,0,1.1,0,2v1.5l0.5,0.5l0.5,0.5v0.5
				c0,0.2,0,0.7,0,1c0,0.2,0,1.1,0,2v1.5l0.5,0.5v1l0.5,0.5v0.5c0,0.2,0,0.7,0,1c0,0.2,0,1.1,0,2v1.5l0,0l-0.1,0.7
				c0,0.4,0.3,1.3,0.5,2l0.6,1.3l0,0l-0.8,1.3c-0.4,0.7-4.6,4.9-9.2,9.2c-4.7,4.3-20.5,19.3-35,33.4c-14.6,14-32.9,31.6-40.6,39
				c-7.7,7.5-29.7,28.9-48.9,47.6c-19.2,18.7-42.5,41.4-51.8,50.5c-9.2,9-17.5,16.6-18.3,16.8c-0.8,0.2-1.4,1.2-1.4,2.2
				c0,1.1,0,2.2,0,2.5v0.5l-1-0.4l-0.2-0.6 M452.9,322.9c-0.6-1.9-9.6-74.5-9.5-76.5c0-0.8,0.3-0.7,0.8,0.3c0.5,0.8,1.6,8,2.6,16
				c0.9,7.9,2.1,17.8,2.6,22c0.5,4.1,1.6,13,2.4,19.7c0.9,6.7,1.8,14,2,16.2C454.4,324.7,453.8,326.1,452.9,322.9 M476.9,297.4
				c-1.7-12.4-3-22.4-5.6-44.7c-1.6-14.1-3.2-26.8-3.5-28.3c-0.4-1.6-0.2-2.7,0.4-2.7s1.3,2.3,1.6,5.2c0.8,7.1,6.3,53.2,7.5,63.5
				c0.6,4.5,0.8,8.7,0.6,9.3C477.6,300.2,477.1,299.2,476.9,297.4"/>
			<path id="pUYAXMiAU" class="st3" d="M458.4,440.7l3-2l3-2l0,0v-0.4c0-0.2,1-1.3,2.3-2.5c1.2-1.2,2.6-2.1,3-2.1
				c0.3,0,0.7,0.2,0.7,0.5v0.5l0,0h-0.5c-0.3,0-0.5,0.2-0.5,0.5v0.5l0,0h-0.5c-0.3,0-0.8,0-1,0h-0.5l0,0v0.5c0,0.2-0.3,0.5-0.5,0.5
				h-0.5l0,0v0.5c0,0.2-0.3,0.5-0.5,0.5h-0.5l0,0v0.5c0,0.2-0.3,0.5-0.5,0.5h-0.5v1H464c-0.2,0-0.6,0.2-1,0.5l-0.6,0.5l0,0h-0.5
				c-0.3,0-0.5,0.2-0.5,0.5v0.5l0,0h-0.5c-0.3,0-0.5,0.2-0.5,0.5v0.5l0,0h-0.5c-0.3,0-0.5,0.2-0.5,0.5v0.5l-0.3-0.3l-0.6,0.4"/>
			<path id="p139Hdo9X7" class="st3" d="M500.4,407.7v-0.4c0-0.2,0.6-1,1.5-1.6c0.8-0.7,1.5-1,1.5-0.7v0.7l0,0h-0.5
				c-0.3,0-0.5,0.2-0.5,0.5v0.5l0,0h-0.5c-0.3,0-0.5,0.2-0.5,0.5v0.5l0,0h-0.5c-0.3,0-0.5,0.2-0.5,0.5v0.5l0,0h-0.5
				c-0.3,0-0.5,0.2-0.5,0.5v0.5l0,0h-0.5c-0.3,0-0.5-0.5-0.5-1c0-0.6,0.4-1,1-1H500.4"/>
			<path id="ptoJRm8s3" class="st3" d="M509.4,399.7l1.5-1l1.5-1l0.5-0.5l0.5-0.5v-0.4c0-0.2,0.3-0.6,0.6-1c0.4-0.3,1.1-0.6,1.5-0.6
				c0.5,0,0.9,0.2,0.9,0.5v0.5l0,0h-0.5c-0.3,0-0.5,0.2-0.5,0.5v0.5l0,0h-0.5c-0.3,0-0.8,0-1,0h-0.5l0,0v0.5c0,0.2-0.3,0.5-0.5,0.5
				h-0.5l0,0v0.5c0,0.2-0.3,0.5-0.5,0.5h-0.5l-0.2-0.2l0.2,1.2l-0.5,0.5l-0.8,0.2l-0.2,0.3"/>
			<path id="pII2SYJuq" class="st3" d="M542.4,372.7v-0.4c0-0.2,0.6-1,1.5-1.6c0.8-0.7,1.5-1,1.5-0.7v0.7l0,0h-0.5
				c-0.3,0-0.5,0.2-0.5,0.5v0.5l0,0h-0.5c-0.3,0-0.5,0.2-0.5,0.5v0.5l0,0h-0.5c-0.3,0-0.5,0.2-0.5,0.5v0.5l0,0h-0.5
				c-0.3,0-0.5,0.2-0.5,0.5v0.5l0,0h-0.5c-0.3,0-0.5,0.2-0.5,0.5v0.5l0,0h-0.5c-0.3,0-0.5,0.2-0.5,0.5v0.5l0,0h-0.5
				c-0.3,0-0.8,0-1,0h-0.5l0,0v0.5c0,0.2-0.3,0.5-0.5,0.5h-0.5l0,0v0.5c0,0.2-0.3,0.5-0.5,0.5h-0.5l0,0v0.5c0,0.2-0.3,0.5-0.5,0.5
				h-0.5l-0.2-0.2l0.2,1.2h-1h-0.5c-0.3,0-0.5-0.2-0.5-0.3s2.3-1.9,5-4L542.4,372.7"/>
			<path id="pD956SUDw" class="st3" d="M562.4,355.7v-0.4c0-0.2,0.6-1,1.5-1.6c0.8-0.7,1.5-1,1.5-0.7v0.7l0,0h-0.5
				c-0.3,0-0.5,0.2-0.5,0.5v0.5l0,0h-0.5c-0.3,0-0.5,0.2-0.5,0.5v0.5l0,0h-0.5c-0.3,0-0.5,0.2-0.5,0.5v0.5l0,0h-0.5
				c-0.3,0-0.5,0.2-0.5,0.5v0.5l0,0h-0.5c-0.3,0-0.5,0.2-0.5,0.5v0.5l0,0h-0.5c-0.3,0-0.9-0.1-1.3-0.1c-0.4,0,0.3-0.7,1.5-1.5
				L562.4,355.7"/>
			<path id="pqOzdR5gn" class="st3" d="M575.2,344.5l-0.2-0.8l0.4-1l3.5-2l3.5-2l0,0v-0.5c0-0.3,0-0.7,0-0.8s0.7-0.8,1.5-1.5
				l1.5-1.2v1v1l0,0h-0.5c-0.3,0-0.5,0.2-0.5,0.5v0.5l0,0h-0.5c-0.3,0-0.5,0.2-0.5,0.5v0.5l0,0h-0.5c-0.3,0-0.5,0.2-0.5,0.5v0.5l0,0
				h-0.5c-0.3,0-0.8,0-1,0h-0.5l0,0v0.5c0,0.2-0.3,0.5-0.5,0.5h-0.5l0,0v0.5c0,0.2-0.3,0.5-0.5,0.5h-0.5l0,0v0.5
				c0,0.2-0.3,0.5-0.5,0.5h-0.5l0,0l0.1,0.8l-0.6,0.7l-0.5,0.5l0,0h-0.5c-0.3,0-0.5,0.2-0.5,0.5v0.5l0,0h-0.5
				c-0.3,0-0.5-0.3-0.5-0.5c0-0.3,0.2-0.5,0.5-0.5h0.5"/>
			<path id="p6orkl4Jk" class="st3" d="M603.4,319.7h-0.5c-0.3,0-0.5,0.2-0.5,0.5v0.5l0,0v0.5c0,0.2-0.3,0.5-0.5,0.5h-0.5l0,0v0.5
				c0,0.2-0.3,0.5-0.5,0.5h-0.5l0,0h-0.5c-0.3,0-0.5,0.2-0.5,0.5v0.5l0,0h-0.5c-0.3,0-0.5,0.2-0.5,0.5v0.5l0,0h-0.5
				c-0.3,0-0.5,0.2-0.5,0.5v0.5l0,0h-0.5c-0.3,0-0.5,0.2-0.5,0.5v0.5l0,0h-0.5c-0.3,0-0.5,0.2-0.5,0.5v0.5l0,0h-0.5
				c-0.3,0-0.5,0.2-0.5,0.5v0.5l0,0l-0.5-0.4c-0.3-0.1,1.7-2.5,4.5-5.2c2.7-2.7,5-4.6,5-4.2V319.7"/>
			<path id="pTegqoyKx" class="st3" d="M613.4,308.7l3-2l3-2l0,0v-0.3c0-0.2,1.8-2.1,4-4.2c2.2-2.2,4-3.6,4-3.3v0.8l0,0h-0.5
				c-0.3,0-0.5,0.2-0.5,0.5v0.5l0,0h-0.5c-0.3,0-0.5,0.2-0.5,0.5v0.5l0,0h-0.5c-0.3,0-0.5,0.2-0.5,0.5v0.5l0,0h-0.5
				c-0.3,0-0.5,0.2-0.5,0.5v0.5l0,0h-0.5c-0.3,0-0.5,0.2-0.5,0.5v0.5l0,0h-0.5c-0.3,0-0.5,0.2-0.5,0.5v0.5l-2.2-12.7l1.2,12.7v1h-1
				l0,0v0.5c0,0.2-0.3,0.5-0.5,0.5h-0.5l0,0h-0.5c-0.3,0-0.5,0.2-0.5,0.5v0.5l0,0h-0.5c-0.3,0-0.5,0.2-0.5,0.5v0.5l0,0h-0.5
				c-0.3,0-0.5,0.2-0.5,0.5v0.5l0,0h-0.5c-0.3,0-0.5,0.2-0.5,0.5v0.5h0.1h-1.1"/>
			<path id="p73VXM1F4" class="st3" d="M632.4,292.7l2-2l2-2l0,0l1-1l1-1l0,0l1-1l1-1l0,0v-0.5c0-0.3,0.2-0.5,0.5-0.5h0.5l0,0v-0.5
				c0-0.3,0.2-0.5,0.5-0.5h0.5l0,0v-0.5c0-0.3,0.2-0.5,0.5-0.5h0.5l0,0v-0.5c0-0.3,0.2-0.5,0.5-0.5h0.5l0,0l1-1l1-1l0,0v-0.5
				c0-0.3,0.2-0.5,0.5-0.5h0.5l0,0v-0.5c0-0.3,0.2-0.5,0.5-0.5h0.5l0,0v-0.5c0-0.3,0.2-0.5,0.5-0.5h0.5l0,0v-0.5
				c0-0.3,0.2-0.5,0.5-0.5h0.5l0,0l0.5-0.7c0.2-0.4,0.5-0.7,0.6-0.8c0,0,0.3-0.8,0.5-1.8c0.3-1,0.9-1.7,1.4-1.7h1h1l-1.5,1.5
				l-1.5,1.5l0,0v0.5c0,0.2-0.3,0.5-0.5,0.5h-0.5l0,0v0.5c0,0.2-0.3,0.5-0.5,0.5h-0.5l0,0v0.5c0,0.2-0.3,0.5-0.5,0.5h-0.5l0,0v0.5
				c0,0.2-0.3,0.5-0.5,0.5h-0.5l0,0v0.5c0,0.2-0.3,0.5-0.5,0.5h-0.5l0,0v0.5c0,0.2-0.3,0.5-0.5,0.5h-0.5l0,0v0.5
				c0,0.2-0.3,0.5-0.5,0.5h-0.5l0,0v0.5c0,0.2-0.3,0.5-0.5,0.5h-0.5l0,0v0.5c0,0.2-0.3,0.5-0.5,0.5h-0.5l0,0v0.5
				c0,0.2-0.3,0.5-0.5,0.5h-0.5l0,0v0.5c0,0.2-0.3,0.5-0.5,0.5h-0.5l0,0v0.5c0,0.2-0.3,0.5-0.5,0.5h-0.5l0,0v0.5
				c0,0.2-0.3,0.5-0.5,0.5h-0.5l0,0v0.5c0,0.2-0.3,0.5-0.5,0.5h-0.5l0,0v0.5c0,0.2-0.3,0.5-0.5,0.5h-0.5l0,0v0.5
				c0,0.2-0.3,0.5-0.5,0.5h-0.5l0,0v0.5c0,0.2-0.3,0.5-0.5,0.5h-0.5l0.7,0.5l-0.7,0.1l-1,0.4l-0.5,0.6c-0.3,0.4-0.5,0.8-0.5,1
				c0,0.2-0.3,0.4-0.5,0.4H632.4"/>
			<path id="p16GIlQB5x" class="st3" d="M580.4,213.7h0.5c0.2,0,0.5-0.3,0.5-0.5v-0.5l0,0h0.5c0.2,0,0.5-0.3,0.5-0.5v-0.5l0,0h0.5
				c0.2,0,0.5-0.3,0.5-0.5v-0.5l0,0h0.5c0.2,0,0.5-0.3,0.5-0.5v-0.5l0,0h0.5c0.2,0,0.5-0.3,0.5-0.5v-0.5l0,0h0.5
				c0.2,0,0.5-0.3,0.5-0.5v-0.5l0,0h0.5c0.2,0,0.5-0.3,0.5-0.5v-0.5l0,0h0.7c0.3,0-1.1,1.7-3.2,3.9c-2.2,2.2-4.1,3.8-4.2,3.5
				L580.4,213.7"/>
		</g>
	</g>
	<g id="l2oDoLdIHysuTBQFapZWJpkj">
		<g>
			<path id="pQ0xLejJB" class="st4" d="M305.4,497.7h0.5c0.2,0,0.5-0.3,0.5-0.5v-0.5l0,0h0.5c0.2,0,0.5-0.3,0.5-0.5v-0.5l0,0h0.5
				c0.2,0,0.5-0.3,0.5-0.5v-0.5l0,0h0.5c0.2,0,0.5-0.3,0.5-0.5v-0.5l0,0h0.5c0.2,0,0.5-0.3,0.5-0.5v-0.5l0,0h0.5
				c0.2,0,0.5-0.3,0.5-0.5v-0.5l0,0h0.5c0.2,0,0.5-0.3,0.5-0.5v-0.5l0,0h0.5c0.2,0,0.5,0.2,0.5,0.5v0.5l0,0h-0.5
				c-0.3,0-0.5,0.2-0.5,0.5v0.5l0,0h-0.5c-0.3,0-0.5,0.2-0.5,0.5v0.5l0,0h-0.5c-0.3,0-0.5,0.2-0.5,0.5v0.5l0,0h-0.5
				c-0.3,0-0.5,0.2-0.5,0.5v0.5l0,0h-0.5c-0.3,0-0.5,0.2-0.5,0.5v0.5l0,0h-0.5c-0.3,0-0.5,0.2-0.5,0.5v0.5l0,0h-0.5
				c-0.3,0-0.5,0.2-0.5,0.5v0.5l0,0h-0.5c-0.3,0-0.5-0.3-0.5-0.5V497.7"/>
			<path id="p3byG7r79" class="st4" d="M347.4,458.7l0.7-0.5c0.4-0.3,1.1-0.5,1.5-0.5h0.8l0,0h0.6c0.4,0,0.9-0.2,1.1-0.4
				c0.2-0.3-0.1-0.7-0.6-1c-0.5-0.4-1.2-0.6-1.6-0.6h-0.5l0,0l9.5-9.8c5.2-5.4,9.5-9.7,9.5-9.7s16.9-17,37.5-37.8l37.5-37.7l0.5-0.5
				l0.5-0.5v-0.3c0-0.2,2.8-3.1,6.2-6.5s6.3-6.2,6.4-6.2c0,0,11.8-12.2,26.2-27l26.2-27l0.5-0.5l0.5-0.5l4.7-5c2.6-2.8,4.7-5,4.7-5
				c0.1,0,0.9-0.8,1.8-1.8c1-0.9,1.8-1.7,1.8-1.7s6.1-6.2,13.5-13.8l13.5-13.7l0,0h0.5c0.2,0,0.7,0,1,0h0.5l0.5,0.5l0.5,0.5h1.5h1.5
				v1h0.5c0.2,0,0.7,0,1,0h0.5h1h2h2l0.5,0.5l0.5,0.5h1h1.5h1.5l0,0v1c0,0.5,0.4,1,1,1c0.5,0,1-0.3,1-0.5v-0.5l0,0h2h2l0.5,0.5
				l0.5,0.5h1h2h2l0.5,0.5l0.5,0.5h0.5c0.2,0,0.7,0,1,0c0.2,0,1.1,0,2,0h1.5l0.5,0.5l0.5,0.5h1.5h1.5l0.5,0.5l0.5,0.5h1h0.5
				c0.2,0,0.7,0,1,0c0.2,0,1.1,0,2,0h1.5l0.5,0.5l0.5,0.5h1h1.5h1.5l0.5,0.5l0.5,0.5h1h0.5c0.2,0,0.7,0,1,0c0.2,0,1.1,0,2,0h1.5
				l0.5,0.5l0.5,0.5h1.5h1.5l0.5,0.5l0.5,0.5h1h0.5c0.2,0,0.7,0,1,0c0.2,0,1.1,0,2,0h1.5l0.5,0.5l0.5,0.5h1.5h1.5v1h0.5
				c0.2,0,0.7,0,1,0h0.5h1h0.5c0.2,0,0.7,0,1,0c0.2,0,1.1,0,2,0h1.5l0.5,0.5l0.5,0.5h1.5h1.5v1h0.5c0.2,0,0.7,0,1,0h0.5h1h2h2
				l0.5,0.5l0.5,0.5h1h0.5c0.2,0,0.7,0,1,0h0.5v1h0.5c0.2,0,0.7,0,1,0h0.5h1h2h2v1h-1c-0.5,0-1.1,0.7-1.4,1.7
				c-0.2,1-0.5,1.8-0.5,1.8c-0.1,0.1-0.4,0.4-0.6,0.8l-0.5,0.7l0,0h-0.5c-0.3,0-0.5,0.2-0.5,0.5v0.5l0,0h-0.5
				c-0.3,0-0.5,0.2-0.5,0.5v0.5l0,0h-0.5c-0.3,0-0.5,0.2-0.5,0.5v0.5l0,0h-0.5c-0.3,0-0.5,0.2-0.5,0.5v0.5l0,0l-1,1l-1,1l0,0h-0.5
				c-0.3,0-0.5,0.2-0.5,0.5v0.5l0,0h-0.5c-0.3,0-0.5,0.2-0.5,0.5v0.5l0,0h-0.5c-0.3,0-0.5,0.2-0.5,0.5v0.5l0,0h-0.5
				c-0.3,0-0.5,0.2-0.5,0.5v0.5l0,0l-1,1l-1,1l0,0l-1,1l-1,1l0,0l-2,2l-2,2l0,0l-1.5,1.5l-1.5,1.5v-1h-0.5c-0.3,0-0.5,0.2-0.5,0.5
				v0.5h1l-0.5,0.6c-0.3,0.4-0.5,0.8-0.5,1c0,0.2-0.3,0.4-0.5,0.4h-0.5l0,0v0.5c0,0.2-0.3,0.5-0.5,0.5h-0.5l0,0v0.5
				c0,0.2-0.3,0.5-0.5,0.5h-0.5l0,0v0.5c0,0.2-0.3,0.5-0.5,0.5h-0.5l0,0v0.5c0,0.2-0.3,0.5-0.5,0.5h-0.5l0,0v0.5
				c0,0.2-0.3,0.5-0.5,0.5h-0.5l0,0v0.5c0,0.2-0.3,0.5-0.5,0.5h-0.5l-2.2-12.7l1.7,13.2l-0.5,0.5v-1h-0.5c-0.3,0-0.5,0.2-0.5,0.5
				v0.5l0,0l-3,2.5l-3,2.5l0,0H613c-0.2,0-0.6,0.2-1,0.5l-0.6,0.5l-0.5,0.5l-0.5,0.5v0.5c0,0.2,0.2,0.5,0.5,0.5h0.5l0,0v-0.5
				c0-0.3,0.2-0.5,0.5-0.5h0.5l0,0v-0.5c0-0.3,0.2-0.5,0.5-0.5h0.5l0,0v-0.5c0-0.3,0.2-0.5,0.5-0.5h0.5l0,0v-0.5
				c0-0.3,0.2-0.5,0.5-0.5h0.5l0,0v-0.5c0-0.3,0.2-0.5,0.5-0.5h0.5l0,0v-0.5c0-0.3,0.2-0.5,0.5-0.5h0.5l0,0v-0.5
				c0-0.3,0.2-0.5,0.5-0.5h0.5l0,0v0.5c0,0.2-0.3,0.5-0.5,0.5h-0.5l0,0v0.5c0,0.2-0.3,0.5-0.5,0.5h-0.5l0,0v0.5
				c0,0.2-0.3,0.5-0.5,0.5h-0.5l0,0v0.5c0,0.2-0.3,0.5-0.5,0.5h-0.5l0,0v0.5c0,0.2-0.3,0.5-0.5,0.5h-0.5l0,0v0.5
				c0,0.2-0.3,0.5-0.5,0.5h-0.5l0,0v0.5c0,0.2-0.3,0.5-0.5,0.5h-0.5l0,0v0.5c0,0.2-0.3,0.5-0.5,0.5h-0.5l0,0v0.5
				c0,0.2-0.3,0.5-0.5,0.5h-0.5l0.1,0.1l-0.6,0.4l-0.5,0.5v-1h-0.5c-0.3,0-0.5,0.2-0.5,0.5v0.5l0,0h-0.5c-0.3,0-0.5,0.2-0.5,0.5v0.5
				l0,0l-1,1l-1,1l0,0l-2,2l-2,2l0,0v0.5c0,0.2-0.3,0.5-0.5,0.5h-0.5l0,0v0.5c0,0.2-0.3,0.5-0.5,0.5h-0.5l0,0v0.5
				c0,0.2-0.3,0.5-0.5,0.5h-0.5l0,0v0.5c0,0.2-0.3,0.5-0.5,0.5h-0.5l0,0v0.5c0,0.2-0.3,0.5-0.5,0.5h-0.5l0,0v-0.5
				c0-0.3,0.2-0.5,0.5-0.5h0.5l0,0v-0.5c0-0.3,0.2-0.5,0.5-0.5h0.5l0,0v-0.5c0-0.3,0.2-0.5,0.5-0.5h0.5l0,0v-0.5
				c0-0.3,0.2-0.5,0.5-0.5h0.5l0,0v-0.8c0-0.4-1.4,0.6-3,2.3c-1.7,1.6-3,3.3-3,3.7v0.8l0,0l-0.5,0.5l-0.5,0.5l-1.8,1.5
				c-0.9,0.8-1.7,1.5-1.8,1.5c-0.1,0-0.4,0.2-0.8,0.5l-0.6,0.5v-1h-0.5c-0.3,0-0.5,0.2-0.5,0.5v0.5h-1l-1.5,1.2
				c-0.8,0.7-1.5,1.4-1.5,1.5s0,0.5,0,0.8v0.5l0,0l-2,2l-2,2l0,0v-0.5c0-0.3,0.2-0.5,0.5-0.5h0.5l0,0v-0.5c0-0.3,0.2-0.5,0.5-0.5
				h0.5l0,0v-0.5c0-0.3,0.2-0.5,0.5-0.5h0.5l0,0v0.5c0,0.2-0.3,0.5-0.5,0.5h-0.5l0,0v0.5c0,0.2-0.3,0.5-0.5,0.5h-0.5l0,0v0.5
				c0,0.2-0.3,0.5-0.5,0.5h-0.5l0,0v0.5c0,0.2-0.3,0.5-0.5,0.5h-0.5l0,0v-0.5c0-0.3-0.5-0.5-1-0.5c-0.6,0-1,0.2-1,0.5v0.5l0,0h-0.5
				c-0.3,0-0.5,0.2-0.5,0.5v0.5l0,0l-1.8,1.5c-0.9,0.8-1.9,1.5-2.1,1.5c-0.3,0-0.2,0.2,0.2,0.5l0.7,0.5l0,0v-0.5
				c0-0.3,0.2-0.5,0.5-0.5h0.5l0,0v-0.5c0-0.3,0.2-0.5,0.5-0.5h0.5l0,0v-0.5c0-0.3,0.2-0.5,0.5-0.5h0.5l0,0v0.5
				c0,0.2-0.3,0.5-0.5,0.5h-0.5l0,0v0.5c0,0.2-0.3,0.5-0.5,0.5h-0.5l0,0v0.5c0,0.2-0.3,0.5-0.5,0.5h-0.5l0,0v0.5
				c0,0.2-0.3,0.5-0.5,0.5h-0.5l0,0v0.5c0,0.2-0.3,0.5-0.5,0.5h-0.5l0,0v-0.5c0-0.3,0.2-0.5,0.5-0.5h0.5l0,0v-0.5
				c0-0.3-0.3-0.5-0.5-0.5h-0.5l-0.5,0.5l-0.5,0.5v0.5c0,0.2-0.3,0.5-0.5,0.5h-0.5l-0.5,0.5l-0.5,0.5v1v0.5c0,0.2-0.3,0.5-0.5,0.5
				h-0.5l0,0v0.5c0,0.2-0.3,0.5-0.5,0.5h-0.5l0,0v0.5c0,0.2-0.3,0.5-0.5,0.5h-0.5l0,0v0.5c0,0.2-0.3,0.5-0.5,0.5h-0.5l0,0v-0.5
				c0-0.3-0.4-0.5-0.9-0.5s-1.5,0.6-2.1,1.5c-0.7,0.8-1,1.5-0.7,1.5h0.7v1l-1.5,1.1c-0.9,0.6-1.5,1.3-1.5,1.5c0,0.2-0.3,0.4-0.5,0.4
				h-0.5l0.5-0.5l0.6-0.4l-0.1-0.1v-0.5c0-0.3-0.3-0.5-0.6-0.5c-0.3,0-1.8,1.1-3.2,2.5c-1.5,1.3-2.4,2.5-2,2.5h0.8l0.1,0.1l-0.1-1.1
				h1l-2,2l-2,2v-1l1.1,0.1l-0.1-0.1v-0.8c0-0.4-0.7,0-1.5,0.8c-0.9,0.8-1.5,1.8-1.5,2.2v0.8l0,0h-0.5c-0.3,0-0.5,0.2-0.5,0.5v0.5
				l0,0h-0.5c-0.3,0-0.5,0.2-0.5,0.5v0.5l0,0h-0.5c-0.3,0-0.5,0.2-0.5,0.5v0.5l-0.5-0.5l-0.4,0.3l-0.1-0.8l-3.5,2.5
				c-2,1.4-3.5,2.8-3.5,3c0,0.2,0.2,0.5,0.5,0.5h0.5l0,0v-0.5c0-0.3,0.2-0.5,0.5-0.5h0.5l0,0v-0.5c0-0.3,0.2-0.5,0.5-0.5h0.5l0,0
				v0.5c0,0.2-0.3,0.5-0.5,0.5h-0.5l0,0v0.5c0,0.2-0.3,0.5-0.5,0.5h-0.5l0,0v0.5c0,0.2-0.3,0.5-0.5,0.5h-0.5l0,0v-0.5
				c0-0.3-0.7-0.2-1.5,0.1c-0.9,0.3-1.5,0.7-1.5,1v0.4l0,0l-1.5,1.1c-0.9,0.6-1.5,1.3-1.5,1.5c0,0.2,0.2,0.4,0.5,0.4h0.5l0,0v-0.5
				c0-0.3,0.2-0.5,0.5-0.5h0.5l0,0v-0.5c0-0.3,0.2-0.5,0.5-0.5h0.5l0,0v-0.5c0-0.3,0.2-0.5,0.5-0.5h0.5v1l-1.5,1.1
				c-0.9,0.6-1.5,1.3-1.5,1.5c0,0.2-0.3,0.4-0.5,0.4h-0.5l0,0v-0.5c0-0.3-0.4-0.5-0.9-0.5s-1.5,0.6-2.1,1.5c-0.7,0.8-1,1.5-0.7,1.5
				h0.7l0,0l-1.5,1.5l-1.5,1.5l0,0v-0.6c0-0.3-0.9-0.1-2,0.5c-1.1,0.6-2.2,1.5-2.6,2.1c-0.3,0.5-0.3,1,0,1h0.6l0,0v-0.5
				c0-0.3,0.2-0.5,0.5-0.5h0.5l0,0v-0.5c0-0.3,0.2-0.5,0.5-0.5h0.5v1l-1.5,1l-1.5,1l0,0v-0.6c0-0.3-0.5-0.3-1,0.1
				c-0.6,0.3-1,0.8-1,1v0.5l0,0l-1,1l-1,1l0,0v0.5c0,0.2-0.3,0.5-0.5,0.5h-0.5l0,0v0.5c0,0.2-0.3,0.5-0.5,0.5h-0.5l0,0v-0.5
				c0-0.3-0.7-0.2-1.5,0.1c-0.9,0.3-1.5,0.7-1.5,1v0.4l0,0l-1.8,1.5c-0.9,0.8-1.7,1.5-1.8,1.5s-0.4,0.2-0.8,0.5l-0.6,0.5v1v0.5
				c0,0.2-0.3,0.5-0.5,0.5h-0.5l0,0v0.5c0,0.2-0.3,0.5-0.5,0.5h-0.5l0,0v0.5c0,0.2-0.3,0.5-0.5,0.5h-0.5l0,0v0.5
				c0,0.2-0.3,0.5-0.5,0.5h-0.5l0,0v-0.5c0-0.3-0.5-0.5-1-0.5c-0.6,0-1,0.2-1,0.5v0.5l0,0l-0.7,0.5c-0.4,0.2-0.9,0.5-1.2,0.5
				c-0.3,0-0.2,0.2,0.2,0.5l0.7,0.5l0,0v-0.5c0-0.3,0.2-0.5,0.5-0.5h0.5l0,0l-0.5,0.6c-0.3,0.4-0.5,0.8-0.5,1c0,0.2-0.3,0.4-0.5,0.4
				h-0.5l0,0V411c0-0.3-0.8,0-1.8,0.7c-1,0.8-1.9,1.4-2,1.5c-0.1,0.1-0.2,0.4-0.2,0.8v0.7l0,0l-0.5,0.6c-0.3,0.4-0.5,0.8-0.5,1
				c0,0.2-0.3,0.4-0.5,0.4h-0.5v-1l1.1,0.1l-0.1-0.1v-0.6c0-0.3-1.2,0.3-2.6,1.2c-1.4,0.9-2.3,1.8-2,2l0.6,0.4l0,0l-0.5,0.6
				c-0.3,0.4-0.5,0.8-0.5,1c0,0.2-0.3,0.4-0.5,0.4h-0.5l0,0v-0.6c0-0.3-1,0-2.1,0.6c-1.2,0.6-1.9,1.3-1.5,1.5l0.6,0.5l0,0l-0.5,0.6
				c-0.3,0.4-0.5,0.8-0.5,1c0,0.2-0.3,0.4-0.5,0.4h-0.5l0,0v-0.6c0-0.3-1,0-2.1,0.6c-1.2,0.6-1.9,1.3-1.5,1.5l0.6,0.5l0,0l-0.5,0.6
				c-0.3,0.4-0.5,0.8-0.5,1c0,0.2-0.3,0.4-0.5,0.4h-0.5l0,0v-0.5c0-0.3-0.4-0.5-0.9-0.5s-1.5,0.6-2.1,1.5c-0.7,0.8-1,1.5-0.7,1.5
				h0.7l0,0l-0.5,0.6c-0.3,0.4-0.5,0.8-0.5,1c0,0.2-0.3,0.4-0.5,0.4h-0.5l0,0v-0.5c0-0.3-0.4-0.5-0.9-0.5s-1.7,0.9-2.6,2
				c-1,1.1-1.6,2-1.2,2h0.7l0,0v-0.5c0-0.3,0.2-0.5,0.5-0.5h0.5l0,0v-0.5c0-0.3,0.2-0.5,0.5-0.5h0.5l0,0v0.5c0,0.2-0.3,0.5-0.5,0.5
				h-0.5l0,0v0.5c0,0.2-0.3,0.5-0.5,0.5h-0.5l0,0v0.5c0,0.2-0.3,0.5-0.5,0.5h-0.5l0,0v-0.5c0-0.3-0.3-0.5-0.5-0.5
				c-0.3,0-0.5,0.2-0.5,0.5v0.5l0,0l-1,1l-1,1l0,0v0.5c0,0.2-0.3,0.5-0.5,0.5h-0.5l0,0v-0.5c0-0.3-0.7-0.2-1.5,0.1
				c-0.9,0.3-1.5,0.7-1.5,1v0.4h-1v0.5c0,0.2,0.2,0.5,0.5,0.5h0.5l0,0v0.5c0,0.2-0.3,0.5-0.5,0.5h-0.5v-1h-0.5
				c-0.3,0-0.5,0.2-0.5,0.5v0.5h-1l-1.8,1.5c-0.9,0.8-1.9,1.5-2.1,1.5c-0.3,0-0.2,0.2,0.2,0.5l0.7,0.5l0,0v-0.5
				c0-0.3,0.2-0.5,0.5-0.5h0.5l0,0v-0.5c0-0.3,0.2-0.5,0.5-0.5h0.5l0,0v0.5c0,0.2-0.3,0.5-0.5,0.5h-0.5l0,0v0.5
				c0,0.2-0.3,0.5-0.5,0.5h-0.5l0,0v0.5c0,0.2-0.3,0.5-0.5,0.5h-0.5l0,0v-0.6c0-0.3-0.8-0.4-1.8-0.1s-3.9,0.8-6.5,1.1
				c-2.6,0.4-4.7,0.9-4.7,1.1v0.5v1h-1.5c-0.9,0-1.8,0-2,0c-0.3,0-0.8,0-1,0h-0.5l0,0v-0.5c0-0.3-2.3-0.5-5-0.5c-2.8,0-5,0.2-5,0.5
				c0,0.2,0.4,0.5,1,0.5h1v1h-1.5c-0.9,0-1.8,0-2,0c-0.3,0-0.8,0-1,0h-0.5l0,0v-0.5c0-0.3-0.9-0.5-2-0.5c-1.1,0-2,0.2-2,0.5
				c0,0.2,0,0.7,0,1v0.5l0,0h-1c-0.6,0-1.3,0-1.5,0c-0.3,0-1.2,0-2,0h-1.5l0,0v-0.5c0-0.3-1.8-0.5-4-0.5c-2.2,0-4,0.2-4,0.5
				c0,0.2,0.4,0.5,1,0.5h1v1h-1.5c-0.9,0-1.8,0-2,0c-0.3,0-0.8,0-1,0h-0.5l0,0v-0.4c0-0.2-1.2-0.4-2.6-0.4s-2.3,0.2-2,0.5
				c0.3,0.3,0.6,0.7,0.6,0.9v0.4l0,0h-1.5c-0.9,0-1.8,0-2,0c-0.3,0-0.8,0-1,0h-0.5l0,0v-0.5c0-0.3-2.3-0.5-5-0.5c-2.8,0-5,0.2-5,0.5
				c0,0.2,0.6,0.5,1.5,0.5h1.5v1h-1.5c-0.9,0-1.8,0-2,0c-0.3,0-0.8,0-1,0h-0.5l0,0v-0.5c0-0.3-1.2-0.5-2.7-0.5s-2.4,0.3-2,0.6
				c0.4,0.4,0.7,0.8,0.7,1v0.4l0,0h-1.5c-0.9,0-1.8,0-2,0c-0.3,0-0.8,0-1,0h-0.5l0,0v-0.5c0-0.3-2.3-0.5-5-0.5c-2.8,0-5,0.2-5,0.5
				c0,0.2,0.4,0.5,1,0.5h1v1h-1.5c-0.9,0-1.8,0-2,0c-0.3,0-0.8,0-1,0h-0.5l0,0l-0.8-0.1c-0.4,0-1.3,0.3-2,0.5l-1.2,0.6l0,0h-1.5
				c-0.9,0-1.8,0-2,0c-0.3,0-0.8,0-1,0H347.4 M627.4,297.7h-0.5c-0.3,0-0.5,0.2-0.5,0.5v0.5l0,0h-0.5c-0.3,0-0.5,0.2-0.5,0.5v0.5
				l0,0h-0.5c-0.3,0-0.5,0.2-0.5,0.5v0.5l0,0h-0.5c-0.3,0-0.5,0.2-0.5,0.5v0.5l0,0h-0.5c-0.3,0-0.5,0.2-0.5,0.5v0.5l0,0h-0.5
				c-0.3,0-0.5,0.2-0.5,0.5v0.5l0,0l-0.5-0.4c-0.3-0.1,1-1.8,3-3.7c1.9-1.8,3.5-3,3.5-2.6V297.7"/>
			<path id="pAWTxvcnj" class="st4" d="M330.4,455.7v-0.5c0-0.3,0.1-0.5,0.2-0.5c0.2,0,1.5-1.2,3-2.5l2.8-2.5l0,0v-0.5
				c0-0.3,0.2-0.5,0.5-0.5h0.5l0,0v-0.5c0-0.3,0.2-0.5,0.5-0.5h0.5l0,0v0.5c0,0.2-0.3,0.5-0.5,0.5h-0.5l0,0v0.5
				c0,0.2-0.3,0.5-0.5,0.5h-0.5l0,0v0.5c0,0.2-0.3,0.5-0.5,0.5h-0.5l0,0v0.5c0,0.2-0.3,0.5-0.5,0.5h-0.5l0,0v0.5
				c0,0.2-0.3,0.5-0.5,0.5h-0.5l0,0v0.5c0,0.2-0.3,0.5-0.5,0.5h-0.5l0,0v0.5c0,0.2-0.3,0.5-0.5,0.5h-0.5l0,0v0.5
				c0,0.2-0.3,0.5-0.5,0.5H330.4"/>
			<path id="p19z6TKCBf" class="st4" d="M452.9,322.9c-0.6-1.9-9.6-74.5-9.5-76.5c0-0.8,0.3-0.7,0.8,0.3c0.5,0.8,1.6,8,2.6,16
				c0.9,7.9,2.1,17.8,2.6,22c0.5,4.1,1.6,13,2.4,19.7c0.9,6.7,1.8,14,2,16.2C454.4,324.7,453.8,326.1,452.9,322.9"/>
			<path id="pNO9MJwzp" class="st4" d="M476.9,297.4c-1.7-12.4-3-22.4-5.6-44.7c-1.6-14.1-3.2-26.8-3.5-28.3
				c-0.4-1.6-0.2-2.7,0.4-2.7s1.3,2.3,1.6,5.2c0.8,7.1,6.3,53.2,7.5,63.5c0.6,4.5,0.8,8.7,0.6,9.3
				C477.6,300.2,477.1,299.2,476.9,297.4"/>
		</g>
	</g>
</g>
<g>
	<g id="l5o9a6GWB3MZfwNgAtbPSMkj">
		<g>
			<path id="pNDQJUktf" class="st5" d="M141.8,770.5l1.7-0.8c1-0.3,0.7-0.6-0.7-0.8h-2.5l0,0v-0.8c0-0.5-0.4-0.8-0.7-0.8
				c-0.4,0-0.7,0.3-0.7,0.8v0.8l0,0h-0.7c-0.4,0-0.7-0.5-0.7-0.8v-0.8l0,0h-0.7c-0.4,0-0.7-0.5-0.7-0.8v-0.8l0,0h-0.7
				c-0.4,0-0.7-0.5-0.7-0.8v-0.8l0,0h0.7c0.3,0,0.7,0.3,0.7,0.8v0.8l0,0h0.7c0.3,0,0.7-32.5,0.7-72.3v-72.1l4.9-2.5
				c2.9-1.5,4.8-2.9,4.3-3.1l-0.6-0.5l0,0l2.9-1.5l2.9-1.5l0,0v0.8c0,0.3,1,0.8,2.3,0.8c1.3,0,2-0.5,1.4-0.8l-0.9-0.8l0,0l2.9-1.5
				l2.9-1.5l0,0v0.8c0,0.3,0.7,0.8,1.6,0.8c1,0,1.3-0.5,0.7-0.8l-0.9-0.8l0,0l0.4-0.8c0.3-0.5,0.9-0.8,1.4-0.8h1l0,0l0.4-0.8
				c0.3-0.5,0.9-0.8,1.4-0.8h1l0,0l-1.4,0.8l-1.4,0.8l0,0v0.9c0,0.5,1.7,0.5,3.9-0.2s4.9-2,6.1-3.2c1.2-1.2,1.7-2.1,1.2-2.1h-1l0,0
				l2.9-1.5l2.9-1.5l0,0v-0.8c0-0.5,0.3-0.8,0.7-0.8h0.7l0,0v0.8c0,0.3-0.4,0.8-0.7,0.8h-0.7l0,0v0.8c0,0.3,0.4,0.6,1,0.6
				c0.6,0,2.7-1.1,4.8-2.1c1.9-1.2,2.7-2.3,1.7-2.3h-1.7l0,0l3.6-3.1l3.6-3.1v1.5l-1.7-0.3l0.3,0.3v0.9c0,0.6,0.1,1.2,0.3,1.4
				c0.1,0.2,1.2-0.6,2.2-1.8c1-1.1,1.6-2,1.2-2h-0.7l0,0l4.3-3.8l4.3-3.8l0,0v1.1c0,0.6,1.6-1.5,3.6-4.9c1.9-3.4,3.5-7.1,3.5-8.1
				s-0.3-1.8-0.6-1.8h-0.7l0,0v-5.4v-5.4l0,0h0.7c0.3,0,1,0,1.4,0c0.3,0,0.7-1.4,0.7-3.1v-3.1l0,0l2.2,1.5l2.2,1.5l0,0v0.8
				c0,0.3,0.3,0.8,0.7,0.8h0.7l0,0v0.8c0,0.3,0.3,0.8,0.7,0.8h0.7l0,0v0.8c0,0.3,0.3,0.8,0.7,0.8h0.7l0,0v0.8c0,0.3,0.3,0.8,0.7,0.8
				h0.7l0,0v0.8c0,0.3,0.3,0.8,0.7,0.8h0.7l0,0v0.8c0,0.3,0.3,0.8,0.7,0.8h0.7l0,0l2.2,1.5l2.2,1.5l0.7,0.8l0.7,0.8l0,0v0.8
				c0,0.3,0.3,0.8,0.7,0.8h0.7l0,0v0.8c0,0.3,0.3,0.8,0.7,0.8h0.7l0,0v0.8c0,0.3,0.3,0.8,0.7,0.8h0.7l0,0l0.7,0.8l0.7,0.8l3.6,3.2
				c1.9,1.8,3.6,3.5,3.6,3.8c0,0.2,0.6,0.8,1.4,1.2l1.4,0.9l0.7,0.8l0.7,0.8l0,0v0.8c0,0.3,0.3,0.8,0.7,0.8h0.7l0,0v0.8
				c0,0.3,0.3,0.8,0.7,0.8h0.7l0,0v0.8c0,0.3,0.3,0.8,0.7,0.8h0.7l0,0l0.7,0.8l0.7,0.8l2.2,1.7c1.2,0.9,2.2,2,2.2,2.3
				s0.3,0.6,0.7,0.6h0.7l0,0v0.8c0,0.3,0.3,0.8,0.7,0.8h0.7l0,0v0.8c0,0.3,0.3,0.8,0.7,0.8h0.7l0,0v0.8c0,0.3,0.3,0.8,0.7,0.8h0.7
				l0,0v0.8c0,0.3,0.3,0.8,0.7,0.8h0.7l0,0v0.8c0,0.3,0.3,0.8,0.7,0.8h0.7l0,0v0.8c0,0.3,0.3,0.8,0.7,0.8h0.7l0,0l3.2,3.1
				c1.7,1.8,3.7,3.5,4.3,3.8l1.2,0.8l0,0v0.8c0,0.3,0.3,0.8,0.7,0.8h0.7l0,0v5.4c0,2.9,0,5.7,0,6.1c0,0.3,0,3.8,0,7.7v6.9l0,0
				l-27.1-0.2c-14.8,0-39.1,0.3-53.6,0.5c-14.7,0.3-2.6,0.6,27,0.8l53.8,0.5l0,0h35.3c19.3,0,35.6,0,36,0c0.3,0,8.5,0,18,0h17.3v0.5
				v0.5l-1.4,0.6h-6.5c-3.6,0-6.9,0-7.2,0c-0.4,0-21.2,0-46.1,0h-45.4l0,0h-51.2c-28.3,0-51.6,0-51.9,0c-0.4,0-1.7,0-2.9,0h-2.2l0,0
				v-0.8c0-0.5-0.6-0.8-1.3-0.8s-2.2,0.9-3,2.3c-1,1.2-1.4,2.3-1,2.3h1l0,0v0.8c0,0.3-0.4,0.8-0.7,0.8h-0.7l0,0h-0.7
				c-0.4,0-0.7,1.7-0.7,3.8c0,2,0.3,3.8,0.7,3.8h0.7l0,0v33c0,18.1,0,33.3,0,33.8c0,0.3,0,3.8,0,7.7v6.9l0,0h-0.7
				c-0.4,0-0.7,0.6-0.7,1.5c0,0.8,0.3,1.5,0.7,1.5h0.7l0.3-0.5l0.6,0.5l0.7,1.2l0.9,0.6l0.4,1.2h-0.7c-0.4,0-0.7-0.5-0.7-0.8v-0.8
				l0,0l-0.9,0.5c-0.4,0.5-0.1,1.1,0.7,1.7s1.6,0.6,1.6,0.2v-0.8l1.7-0.5l0.7,0.8l0.4,1.2h0.7c0.3,0,1,0,1.4,0h0.7l0.3-0.5l1.2-0.2
				l1.4,0.6h5c2.7,0,5.3,0,5.8,0c0.3,0,21,0,46.1,0h45.4l0,0v11.5V769l0.7,0.8l0.7,1.1l0,0v0.6l-1.4,0.6h-54.1
				c-29.8,0-54.6,0-55.2,0c-0.6,0-7.1-0.3-14.4-0.8L141.8,770.5"/>
			<path id="plR1SfOez" class="st5" d="M347.4,552.6l1-1.5h1v2.3c0,1.2,0,2.6,0,3.1c0,0.3,0,3.8,0,7.7v6.9H348v-6.9
				c0-3.8,0-7.4,0-7.7c0-0.5,0-1.5,0-2.3v-1.5"/>
			<path id="pthS6Tl79" class="st5" d="M199.5,548v-0.8c0-0.5,0-1.2,0-1.5c0-0.5-1.3-0.8-2.9-0.8c-1.6,0-2.9,0.3-2.9,0.8v0.8l0,0
				H193c-0.4,0-0.7-0.5-0.7-0.8v-0.8l0,0l0.7-0.6c0.4-0.5,0.1-1.1-0.7-1.7c-0.9-0.6-1.4-0.6-1.4-0.2v0.9l0,0h-0.7
				c-0.4,0-0.7-0.5-0.7-0.8v-0.8l0,0h0.7c0.3,0,0.7-0.5,0.7-0.8c0-0.5-0.4-0.8-0.7-0.8h-0.7l0,0l-0.7-0.6c-0.4-0.3-0.7-0.9-0.7-1.5
				v-0.9h1.4v-0.8c0-0.5,0-1.2,0-1.5v-0.8H188v-6.9c0-3.8-0.1-7.5-0.1-8.1s0.3-5.8,0.7-11.5l0.9-10.3l0,0v-0.8
				c0-0.5,0.3-0.8,0.7-0.8h0.7l0,0v0.8c0,0.3,0.4,0.8,1,0.8c0.6,0,1.6-1.1,2.2-2.3l1.2-2.3l0,0l41.4-0.9c22.8-0.3,41.9-0.8,42.5-0.8
				l1.2,0.2v0.5l-0.4,0.6l-0.3,1.2l-0.7,0.8v5.4c0,2.9,0,5.7,0,6.1c0,0.3,0,10,0,21.5V548l0,0h-21.6c-12,0-22.1,0-22.3,0
				c-0.4,0-6.3,0-13,0h-12.3l0,0h-5H199.5"/>
		</g>
	</g>
	<g id="l396GDnK3XEIgOaWsCBXarbj">
		<g>
			<path id="p52Z5sZ9h" class="st6" d="M140.4,769h-0.7c-0.4,0-0.7-0.5-0.7-0.8v-0.8l0,0h-0.7c-0.4,0-0.7-0.5-0.7-0.8v-0.8l0,0h-0.7
				c-0.4,0-0.7-0.5-0.7-0.8v-0.8l-0.7,0.8l-0.3-0.8l-0.4-1.5l0.3-1.2l0.4-1.1l0,0l-0.7-0.8v-5.4v-5.4l0,0h0.7c0.3,0,0.7-1.4,0.7-3.1
				c0-1.7-0.4-3.1-0.7-3.1h-0.7l0,0V736c0-3.8,0-7.4,0-7.7c0-0.5,0-19.8,0-43v-42.2l0,0l0.7-3.1l0.7-3.1l-1.2-0.5v-0.8l1.2-0.3v-2.3
				c0-1.4,0-2.8,0-3.1c0-0.5-0.4-0.8-0.7-0.8h-0.7l0,0v-2.3v-2.3l0.7-0.8l0.7-0.8l1.4-2.3l1.4-2.3l0.7-0.8l1-0.5l0.7-0.8l1.2-0.3
				l0.7-0.8h0.7c0.3,0,1,0,1.4,0h0.7l0,0l0.6,0.5c0.4,0.2-1.4,1.5-4.3,3.1l-4.9,2.5v62.2c0,34.2,0,66.8,0,72.3v10l0.7,0.8l0.7,0.8
				h0.7c0.3,0,0.7,0.3,0.7,0.8V769L140.4,769h2.5c1.4,0.2,1.7,0.5,0.7,0.8l-1.7,0.8l0.4,0.5l-1.2-1.2"/>
			<path id="pegzBdfLg" class="st6" d="M164.9,607.9l1.4-0.8l1.4-0.8v0.5l1-0.9l1.2-0.3l1-0.5l0.7-0.8l1.2-0.3l1-0.5l0,0l1.2-0.9
				l1.4,0.6l-1.9,2.1c-1,1.2-3.6,2.6-5.8,3.2s-3.9,0.6-3.9,0.2V607.9"/>
			<path id="pbqfTG2Bq" class="st6" d="M180.8,600.2h0.7c0.3,0,0.7-0.5,0.7-0.8v-0.8v0.5l1-0.9l1.2-0.3l1-0.5l0,0l1.2-0.9l1.4,0.6h1
				c0.6,0-0.6,1.1-2.5,2.3c-2,1.1-4.2,2.1-4.8,2.1c-0.6,0-1-0.3-1-0.6V600.2"/>
			<path id="pYiBDBAQ1" class="st6" d="M203.8,583.3v-0.8c0-0.5,0.3-0.8,0.7-0.8h0.7l0,0V581c0-0.5,0.3-0.8,0.7-0.8h0.7l0,0l0.7-1.5
				l0.7-1.5l0,0l0.7-1.5l0.7-1.5l0,0v-2.3v-2.3l0,0h0.7c0.3,0,0.6,0.8,0.6,1.8s-1.6,4.8-3.5,8.1c-2,3.4-3.6,5.5-3.6,4.9V583.3"/>
			<path id="pa5XxqP0q" class="st6" d="M209.6,558.8v-3.1v-3.1h1.4l1.6,0.2l-0.1-0.2v3.1c0,1.7-0.4,3.1-0.7,3.1c-0.4,0-1.2,0-1.4,0
				H209.6"/>
			<path id="pCLVmFDVP" class="st6" d="M198.1,546.5h-0.7c-0.4,0-1.2,0-1.4,0h-0.7l0,0h-0.7c-0.4,0-0.7-0.5-0.7-0.8v-0.8l0,0H193
				c-0.4,0-1.2,0-1.4,0h-0.7l0,0v-0.8c0-0.5,0-1.2,0-1.5v-0.8l0,0h-0.7c-0.4,0-0.7-0.5-0.7-0.8v-0.8h1.4l1.6,2.3
				c0.9,1.2,2.7,2.3,4.3,2.3c1.4,0,2.7,0.3,2.7,0.8c0,0.3,0,1.1,0,1.5v0.8v-0.6l-1.2,0.2"/>
			<path id="p4BttZg4K" class="st6" d="M189.4,497.4h0.7c0.3,0,0.7-0.5,0.7-0.8v-0.8l0,0v-0.8c0-0.5,0.3-0.8,0.7-0.8h0.7l0.7-0.8
				l1-0.5l0,0l1.2-0.9l1.4,0.6l-1.7,2.3c-0.9,1.2-1.9,2.3-2.2,2.3s-0.9,0-1.2,0h-0.7l0,0v1.7c0,1.1-0.4,1.5-0.7,1.1
				c-0.4-0.5-0.7-1.2-0.7-1.8V497.4"/>
		</g>
	</g>
	<g id="l3nIiTXNGDmoQVuBiJGknTuj">
		<g>
			<path id="pEDfrCdhZ" class="st7" d="M280.2,770.9l-0.7-1.1l-0.7-0.8v-11.5V746l0,0h45.4c24.9,0,45.7,0,46.1,0c0.3,0,3.6,0,7.2,0
				h6.5l0,0v0.8c0,0.3,1.2,0.8,2.6,0.8s3.7-1.4,5-2.9s2.5-4,2.5-5.4s-0.4-2.5-0.7-2.5h-0.7l0,0v-6.9c0-3.8,0-7.4,0-7.7
				c0-0.5,0-16,0-34.5v-33.8l0,0h0.7c0.3,0,0.7-1.4,0.7-3.1c0-1.5-1.2-4-2.3-5.4c-1.3-1.2-2.9-2.3-3.6-2.3s-1.3,0.3-1.3,0.8v0.8l0,0
				h-0.7c-0.4,0-0.7-0.5-0.7-0.8v-0.8l0,0l-51.6-0.9c-28.4-0.3-52-0.8-52.6-0.8l-1,0.2h-1.4v0.9l-1.4,0.6l-53-0.5l-52.9-0.5
				l53.6-0.3l53.8-0.3l0,0v-6.9c0-3.8,0-7.4,0-7.7c0-0.5,0-3.2,0-6.1v-5.4l0,0h-0.7c-0.4,0-0.7-0.5-0.7-0.8V614l0,0h0.7
				c0.3,0,0.7,0.3,0.7,0.8v0.8l0,0h30.6c16.9,0,44.5-0.3,61.7-0.8c17-0.3,31.1-0.6,31.3-0.8h0.4l0,0l2.2,0.8l2.2,0.8l0,0h0.7
				c0.3,0,0.7,0.3,0.7,0.8c0,0.3,1.3,0.8,2.9,0.8s2.9-0.5,2.9-0.8v-0.8v0.5l1-0.2l0.4,1.2h-1c-0.6,0-0.6,0.5,0,0.9
				c0.6,0.6,1.3,0.6,1.7,0l0.7-0.9l0,0h0.7c0.3,0,0.7,0.3,0.7,0.8v0.8l0,0l-0.9,0.5c-0.4,0.5-0.1,1.1,0.7,1.7
				c1,0.8,1.6,23.6,1.6,73.1c0,39.6,0.3,72.1,0.7,72.1h0.7l0,0v0.8c0,0.3-0.4,0.8-0.7,0.8h-0.7l0,0v0.8c0,0.3-0.4,0.8-0.7,0.8h-0.7
				l0,0v-0.8c0-0.5-0.6-0.8-1.2-0.8c-0.6,0.2-2.3,0.8-3.9,1.5c-1.6,0.6-2.2,1.2-1.2,1.4l1.9,0.2v1.5l-1.4-0.8l-1.4-0.8l0,0h-0.7
				c-0.4,0-1.2,0-1.4,0h-0.7v1.5h-34.6c-19,0-35,0-35.3,0c-0.4,0-13.4,0-28.8,0h-28.1l-1.4-0.6V770.9"/>
			<path id="pLvxyb2HX" class="st7" d="M267.3,604.8h-0.7c-0.4,0-0.7-0.5-0.7-0.8v-0.8l0,0h-0.7c-0.4,0-0.7-0.5-0.7-0.8v-0.8l0,0
				h-0.7c-0.4,0-0.7-0.5-0.7-0.8v-0.8l0,0h-0.7c-0.4,0-0.7-0.5-0.7-0.8v-0.8l0,0h-0.7c-0.4,0-0.7-0.5-0.7-0.8v-0.8l0,0h0.7
				c0.3,0,0.7,0.3,0.7,0.8v0.8l0,0h0.7c0.3,0,0.7,0.3,0.7,0.8v0.8l0,0h0.7c0.3,0,0.7,0.3,0.7,0.8v0.8l0,0h0.7c0.3,0,0.7,0.3,0.7,0.8
				v0.8l0,0h0.7c0.3,0,0.7,0.3,0.7,0.8V604.8L267.3,604.8h0.7c0.3,0,0.7,0.3,0.7,0.8v0.8l0,0H268c-0.4,0-0.7-0.5-0.7-0.8V604.8"/>
			<path id="peOTkgg5a" class="st7" d="M224,563.4h-0.7c-0.4,0-0.7-0.5-0.7-0.8v-0.8l0,0h-0.7c-0.4,0-0.7-0.5-0.7-0.8v-0.8l0,0h-0.7
				c-0.4,0-0.7-0.5-0.7-0.8v-0.8l0,0H219c-0.4,0-0.7-0.5-0.7-0.8v-0.8l0,0h-0.7c-0.4,0-0.7-0.5-0.7-0.8v-0.8l0,0h0.7
				c0.3,0,0.7,0.3,0.7,0.8v0.8l0,0h0.7c0.3,0,0.7,0.3,0.7,0.8v0.8l0,0h0.7c0.3,0,0.7,0.3,0.7,0.8v0.8l0,0h0.7c0.3,0,0.7,0.3,0.7,0.8
				v0.8l0,0h0.7c0.3,0,0.7,0.3,0.7,0.8V563.4L224,563.4h0.7c0.3,0,0.7,0.3,0.7,0.8v0.8l0,0h-0.7c-0.4,0-0.7-0.5-0.7-0.8V563.4"/>
			<path id="p119Dy3RZy" class="st7" d="M278.8,548v-20.7c0-11.5,0-21.2,0-21.5c0-0.5,0-3.2,0-6.1v-5.4l0.7-0.8l0.3-1.2l0,0l0.4-0.6
				l1.4-0.5H304c12.3,0,22.6,0,23.1,0c0.3,0,8.1,0,17.3,0H361l0.7,0.8l0.7,0.8v0.8c0,0.3,0.3,0.8,0.7,0.8c0.3,0,0.7-0.5,0.7-0.8
				v-0.8l0,0h0.7c0.3,0,0.7,0.3,0.7,0.8v0.8l0,0h-0.7c-0.4,0-0.7,0.9-0.7,2c0,1.2,0.9,2.6,2.2,3.1c1.2,0.5,2.2,0.6,2.2,0.2v-0.6h1.4
				v2.3v2.3v1.5v1.5v1.5v5.4c0,2.9,0,5.7,0,6.1c0,0.3,0,1.7,0,3.1v2.3l0,0h-0.7c-0.4,0-0.7,2.8-0.7,6.1c0,3.4,0.3,6.1,0.7,6.1h0.7
				l0,0v0.8c0,0.3,0,1.1,0,1.5v0.8h-1.4h-0.7c-0.4,0-0.7,0.3-0.7,0.8c0,0.3,0.3,0.8,0.7,0.8h0.7l0,0v0.8c0,0.3-0.4,0.8-0.7,0.8h-0.7
				l0,0v-0.9c0-0.5-0.7-0.5-1.6,0.2c-0.9,0.6-1.2,1.2-0.7,1.7l0.9,0.6l0,0v0.8c0,0.3-0.4,0.8-0.7,0.8h-0.7l0,0v-0.8
				c0-0.5-0.7-0.8-1.4-0.8c-0.9,0-1.4,0.3-1.4,0.8v0.8v1.5h-0.7c-0.4,0-1.2,0-1.4,0h-0.7v-1.5v-0.8c0-0.5-0.4-0.8-0.7-0.8
				c-0.4,0-0.7,0.3-0.7,0.8v0.8v1.5h-0.7c-0.4,0-1.2,0-1.4,0h-0.7l-0.7-0.8l0,0l-0.7,0.8h-0.7c-0.4,0-1.2,0-1.4,0h-0.7H348h-21.6
				c-12,0-22.1,0-22.3,0c-0.4,0-6.3,0-13,0H278.8"/>
		</g>
	</g>
	<g id="l5KFGytUcoVw1ja69XvO9Tpj">
		<g>
			<path id="pKDdvHZJw" class="st8" d="M419.3,766.7l0.7-0.8V759c0-3.8,0-36.2,0-72c0-54-0.4-65.4-2.2-66.9c-1-0.9-3.9-2.5-6.5-3.2
				l-4.3-1.4l0,0l-1.2-0.8c-0.6-0.5-1.6-0.8-2.2-0.8h-1l0,0v-0.6c0-0.3-3.2-1.8-6.9-3.2c-3.7-1.5-10.4-4.9-14.7-7.4
				c-4.5-2.6-9.7-5.7-11.8-6.8c-2-1.2-4.6-3.2-5.6-4.5c-0.9-1.2-1.3-2.1-0.9-2.1h1l0,0v0.8c0,0.3,0.3,0.8,0.7,0.8h0.7v-0.6l1,0.9
				l1.2,0.5l0.7,0.8l0,0l0.7,0.8l0.7,0.8h0.7c0.3,0,0.7,0.3,0.7,0.8v0.8l0,0h0.7c0.3,0,0.7,0.3,0.7,0.8v0.8l0,0h0.7c0.3,0,1,0,1.4,0
				h0.7l0,0v0.8c0,0.3,0.3,0.8,0.7,0.8h0.7V598l1,0.9l1.2,0.5l0.7,0.8h0.7c0.3,0,0.7,0.3,0.7,0.8v0.8l0,0h0.7c0.3,0,1,0,1.4,0h0.7
				l0.7,0.8l1,0.3l0.7,0.8l1.2,0.5l1,0.3l0.7,0.8l1.2,0.5l0.7,0.8h0.7c0.3,0,0.7,0.3,0.7,0.8v0.8l0,0h0.7c0.3,0,1,0,1.4,0h0.7l0,0
				v0.8c0,0.3,0.3,0.8,0.7,0.8h0.7h1.4h0.7c0.3,0,0.7,0.3,0.7,0.8v0.8l0,0h0.9c0.6,0,1.2,0.3,1.4,0.8l0.6,0.8l0,0h1
				c0.6,0,1.6,0.3,2.2,0.8l1.2,0.8l0,0h0.7c0.3,0,1,0,1.4,0h0.7v1.5h0.7c0.3,0,1,0,1.4,0h0.7l0.3-0.5l1.2,0.9v1.1h0.7
				c0.3,0,1,0,1.4,0h0.7l0,0v0.8c0,0.3,0.3,0.8,0.7,0.8h0.7l0,0l0.9,0.8c0.6,0.3,1.2,0.8,1.4,0.8s0.6,0.3,0.6,0.8v0.8v1.5l0.7,0.8
				l0.7,0.8v23.8c0,13,0,24.1,0,24.6c0,0.3,0,21,0,46v45.3l-0.7,0.8l-1,0.9l0.3-0.2h-0.7c-0.4,0-0.7,0.3-0.7,0.8v0.8l0,0h-0.7
				c-0.4,0-0.7,0.3-0.7,0.8v0.8l0.1-0.3l-0.9,1.1l-1.2,0.3l-0.7,0.8l-1.7-0.3h-1c-0.6,0-1.3-0.3-1.6-0.6s1.2-1.1,3.2-1.5l3.7-0.9"/>
			<path id="pLjEPhvdH" class="st8" d="M358.1,586.4h-0.6c-0.3,0-2.3-1.8-4.5-4c-2.2-2.1-3.6-4.3-3.2-4.6l1-0.6l0,0v0.8
				c0,0.3,0.3,0.8,0.7,0.8h0.7l0,0v0.8c0,0.3,0.3,0.8,0.7,0.8h0.7l0,0v0.8c0,0.3,0.3,0.8,0.7,0.8h0.7l0,0v0.8c0,0.3,0.3,0.8,0.7,0.8
				h0.7l0,0v0.8c0,0.3,0.3,0.8,0.7,0.8h0.7l0,0v0.8c0,0.3,0.3,0.8,0.7,0.8h0.7l0,0v0.8c0,0.3,0.3,0.8,0.7,0.8h0.7l0,0v0.8
				c0,0.3-0.7,0.8-1.4,0.8c-0.9,0-1.4-0.8-1.4-1.5V586.4"/>
			<path id="p62KceE8D" class="st8" d="M348,552.6v2.3c0,1.2,0,2.6,0,3.1c0,0.3,0,3.8,0,7.7v6.9l0,0h0.7c0.3,0,0.7,0.3,0.7,0.8v0.8
				v1.5h-0.7c-0.4,0-1-1.7-1.4-3.5c-0.3-1.8-1-7.5-1.4-12.6c-0.4-4.9-0.4-8.6,0.1-8c0.6,0.5,1.2,1.1,1.4,1.1H348"/>
			<path id="pmt1Jy11r" class="st8" d="M368.2,541.9h-0.7c-0.4,0-0.7,0.3-0.7,0.8v0.8l0,0v0.8c0,0.3-0.4,0.8-0.7,0.8h-0.7l0,0h-0.7
				c-0.4,0-0.7,0.3-0.7,0.8v0.8v-0.6l-1.2,0.9l-1.7-0.3l0.3-0.5c0.1-0.3,1.9-1.7,3.6-3.4c1.7-1.5,3.3-2.5,3.3-1.8V541.9"/>
			<path id="p133F5ViYI" class="st8" d="M369.6,525v0.8c0,0.3,0,1.1,0,1.5c0,0.3,0,1.7,0,3.1v2.3v1.5l0.3,1.8l0,0l-0.9,1.2h-0.9
				l0.7-6.1L369.6,525"/>
			<path id="paSqh076T" class="st8" d="M363.8,492.8v0.8c0,0.3,0.3,0.8,0.7,0.8h0.7v-0.6l1,0.9l0.4,1.2v0.8c0,0.3,0.3,0.8,0.7,0.8
				h0.7l0,0v0.8c0,0.3,0,1.1,0,1.4c0,0.5-1,0.3-2.2-0.2c-1-0.3-2.3-2.1-2.7-3.7c-0.3-1.7-0.4-2.9-0.1-2.9H363.8"/>
		</g>
	</g>
	<g id="l7Qi6yR56YkMIsC97ixiPybj">
		<g>
			<path id="pppakn4aN" class="st9" d="M384,746h0.7c0.3,0,1,0,1.4,0h0.7h1.4l1.6,0.2l-0.1-0.2v-0.8c0-0.5,0.3-0.8,0.7-0.8h0.7l0,0
				v-0.8c0-0.5,0.3-0.8,0.7-0.8h0.7l0,0v-3.1v-3.1l0,0h0.7c0.3,0,0.7,1.1,0.7,2.5s-1.2,3.8-2.5,5.4s-3.6,2.9-5,2.9s-2.6-0.5-2.6-0.8
				V746"/>
			<path id="pjP8XTjuq" class="st9" d="M392.7,653.9v-3.1v-3.1l0.1-0.3l-1.6,0.3l-0.7-0.8l-0.7-0.8l0,0v-0.8c0-0.5-0.4-0.8-0.7-0.8
				h-0.7l0,0h-0.7c-0.4,0-0.7-0.5-0.7-0.8v-0.8l0,0l-1.4,0.5l-1.4-0.5h-15.1c-8.4,0-15.6,0-15.9,0c-0.4,0-17,0-36.8,0h-36l-1.4-0.6
				v-0.9h1.4h52.6c36.9,0,53.6,0.5,55.9,1.7c1.7,0.9,3.6,2.5,4.2,3.4c0.6,1.1,1,2.9,1,4.5c0,1.5-0.3,2.8-0.6,2.8H392.7"/>
			<path id="ps3JBWlLl" class="st9" d="M278.4,614.8l-1-0.3l-1.4-0.5l-0.7-1.1c-0.4-0.6-0.7-1.2-0.7-1.4s-1.3-1.4-2.9-2.8l-2.9-2.5
				l0,0v-0.8c0-0.5-0.4-0.8-0.7-0.8h-0.7l0,0V604c0-0.5-0.4-0.8-0.7-0.8h-0.7l0,0v-0.8c0-0.5-0.4-0.8-0.7-0.8h-0.7l0,0V601
				c0-0.5-0.4-0.8-0.7-0.8h-0.7l0,0v-0.8c0-0.5-0.4-0.8-0.7-0.8h-0.7l0,0v-0.8c0-0.5-0.4-0.8-0.7-0.8h-0.7l0,0h-0.7
				c-0.4,0-0.7-0.3-0.7-0.6s-1-1.4-2.2-2.3l-2.2-1.7l-0.7-0.8l-0.7-0.8l0,0v-0.8c0-0.5-0.4-0.8-0.7-0.8h-0.7l0,0v-0.8
				c0-0.5-0.4-0.8-0.7-0.8H250l0,0v-0.8c0-0.5-0.4-0.8-0.7-0.8h-0.7l0,0l-0.7-0.8l-0.7-0.8l-1.4-0.9c-0.9-0.5-1.4-1.1-1.4-1.2
				c0-0.3-1.7-2-3.6-3.8l-3.6-3.2l-0.7-0.8l-0.7-0.8l0,0v-0.8c0-0.5-0.4-0.8-0.7-0.8h-0.7l0,0v-0.8c0-0.5-0.4-0.8-0.7-0.8h-0.7l0,0
				v-0.8c0-0.5-0.4-0.8-0.7-0.8h-0.7l0,0l-0.7-0.8l-0.7-0.8l-2.2-1.5l-2.2-1.5l0,0v-0.8c0-0.5-0.4-0.8-0.7-0.8H224l0,0v-0.8
				c0-0.5-0.4-0.8-0.7-0.8h-0.7l0,0v-0.8c0-0.5-0.4-0.8-0.7-0.8h-0.7l0,0v-0.8c0-0.5-0.4-0.8-0.7-0.8h-0.7l0,0V558
				c0-0.5-0.4-0.8-0.7-0.8h-0.7l0,0v-0.8c0-0.5-0.4-0.8-0.7-0.8h-0.7l0,0l-2.2-1.5l-2.2-1.5l0,0v-0.8c0-0.5-0.3-0.8-0.6-0.8
				c-0.3,0-0.9-0.5-1.4-0.8l-0.9-0.8l0.3-0.5l-0.3-0.6l1.4-0.5h22.3c12.3,0,22.6,0,23.1,0c0.3,0,5.5,0,11.5,0h10.8l0,0h0.7
				c0.3,0,1,0,1.4,0c0.3,0,15,0,32.4,0h31.7l0.7,0.8l0,0l0.7-0.8h0.7c0.3,0,0.7,0.3,0.7,0.8v0.8l0,0v0.8c0,0.3,0,1.1,0,1.5v0.8l0,0
				l-1.6-0.9c-1-0.6-1.3,0.6-0.9,3.4c0.4,2.5,0.7,7.2,0.9,10.6c0,3.4,0.6,6.9,1.3,8c0.6,1.1,1.6,2,2.2,2h1l-0.4,0.3l0.1,0.9
				l-1.2,0.3l2.7,3.8c1.4,2,3.2,3.8,3.6,3.8s0.9,0.5,0.9,0.9c0,0.6,0.3,0.6,0.7,0l0.7-0.9l0,0h0.7c0.3,0,0.7,0.3,0.7,0.8v0.8l0,0
				h0.7c0.3,0,0.7,0.3,0.7,0.8v0.8l0,0h1.4v1.5v0.8c0,0.3,0.3,0.8,0.7,0.8c0.3,0,0.7-0.5,0.7-0.8v-0.8l0,0h0.7
				c0.3,0,0.7,0.3,0.7,0.8v0.8l0,0l3.6,3.4c1.9,1.8,3.6,3.5,3.6,3.8c0,0.2,0.6,0.5,1.4,0.5c0.7,0,1.4-0.5,1.4-0.8v-0.8l0,0h0.7
				c0.3,0,0.7,0.3,0.7,0.8v0.8l0,0l-0.9,0.5c-0.4,0.3,2.3,2.3,6.2,4.5c3.7,2.1,8.4,4.3,10.1,4.9c1.7,0.6,3.3,0.6,3.3,0.2v-0.8
				l0.1,0.2l0.9,0.2l0.4,1.2l2.9,2.3l2.9,2.3l0,0h1c0.6,0,1.6,0.3,2.2,0.8l1.2,0.8l0,0l-2.2-0.8l-2.2-0.8l0,0h-0.4
				c-0.1,0.2-14,0.5-30.7,0.8c-16.6,0.5-44,0.8-60.8,0.8h-30.6h-1.4L278.4,614.8"/>
		</g>
	</g>
	<g>
		<path id="pBrhp5r2k" class="st3" d="M173.1,745.2l-1.4-0.8l-1.9,0.3l-0.7-0.8l-1-0.3l-0.7-0.8h-0.7c-0.4,0-0.7-0.5-0.7-0.8v-0.8
			l0,0v-19.2c0-10.6,0-19.6,0-20c0-0.5,0-12.6,0-26.9v-26.1h-0.6l0.6-0.8l1.4-0.8l1.4-1.5l1.4-1.5l0,0h2.2c1.2,0,2.5,0,2.9,0
			c0.3,0,23.6,0,51.9,0h51.2l0,0v47.4c0,26.1,0.3,48.5,0.9,49.9c0.7,2.1-4.5,2.5-51.9,2.5c-29.1,0-52.8,0.3-52.8,0.8v0.8v-0.6
			l-1.2,0.2"/>
		<path id="p16VfvkBIB" class="st3" d="M386.4,742.9c2.7-1.5,2.9-3.1,2.9-46.2c0-31-0.6-45.6-1.7-48c-1.6-2.9-1.4-3.1,0.7-1.2
			c2.2,1.8,2.5,7.1,2.5,47.7c0,28.1-0.6,46.2-1.4,47.4c-0.9,0.9-2.5,1.8-3.6,1.8C384.3,744.5,384.4,743.8,386.4,742.9"/>
		<path id="pshERd9ue" class="st4" d="M174.5,746v-0.8c0-0.5,23.6-0.8,52.8-0.8c47.4,0,52.6-0.3,51.9-2.5
			c-0.6-1.4-0.9-23.8-0.9-49.9v-47.4l0,0h35.3c19.3,0,35.6,0,36,0c0.3,0,8.5,0,18,0H385l0,0h0.7c0.3,0,1,0,1.4,0h0.7l0,0v0.8
			c0,0.3,0.3,0.8,0.7,0.8h0.7l0,0v0.8c0,0.3,0.3,0.8,0.7,0.8h0.7l0,0l-0.3,1.7l1.7-0.2v2.3v2.3l0,0v33.8c0,18.6,0,34.1,0,34.5
			c0,0.3,0,3.8,0,7.7v6.9l0,0v1.1c0,0.6-0.4,1.7-0.7,2.3l-0.7,1.2l0,0v0.8c0,0.3-0.4,0.8-0.7,0.8h-0.7l25.7,0.2l-25.7,1.4h-1.4
			l-1.6-1.1c-0.9-0.5-1.9-0.5-2.5,0c-0.4,0.6-0.1,1.1,0.9,1.1h1.7v1.5h-0.7c-0.4,0-1.2,0-1.4,0h-0.7l0,0h-6.5c-3.6,0-6.9,0-7.2,0
			c-0.4,0-21.2,0-46.1,0h-45.4l0,0h-15.1c-8.4,0-15.6,0-15.9,0c-0.4,0-17,0-36.8,0H174.5 M388.6,697.5c0.6-33.5,0.3-46.2-1-48.6
			c-1.6-3.1-1.4-3.2,0.7-1.4c2.2,1.8,2.5,7.1,2.5,48c0,29-0.6,46-1.4,46.7C388.3,742.6,388,727.6,388.6,697.5"/>
		<path id="pWrkJIQX1" class="st4" d="M165.2,739.9l-0.7-1.5v-6.9c0-3.8,0-7.4,0-7.7c0-0.5,0-15.7,0-33.8v-33l0,0v-2.3
			c0-1.4,0-2.8,0-3.1c0-0.5,0-1.2,0-1.5v-0.8l0.3,0.3l0.6-0.3l0.6,1.5v14.6c0,8,0,14.9,0,15.3c0,0.3,0,14.1,0,30.7v29.9h-0.6
			l-0.6-0.5"/>
	</g>
</g>
</svg>
